<svg width="960" height="720" xmlns="http://www.w3.org/2000/svg" xmlns:xlink="http://www.w3.org/1999/xlink" overflow="hidden"><defs><clipPath id="clip0"><rect x="0" y="0" width="960" height="720"/></clipPath><clipPath id="clip1"><rect x="68" y="138" width="798" height="207"/></clipPath><clipPath id="clip2"><rect x="68" y="138" width="798" height="207"/></clipPath><clipPath id="clip3"><rect x="30" y="120" width="899" height="268"/></clipPath><clipPath id="clip4"><rect x="30" y="120" width="899" height="268"/></clipPath><clipPath id="clip5"><rect x="30" y="120" width="899" height="268"/></clipPath><clipPath id="clip6"><rect x="30" y="120" width="899" height="268"/></clipPath><clipPath id="clip7"><rect x="30" y="120" width="899" height="268"/></clipPath><clipPath id="clip8"><rect x="30" y="120" width="899" height="268"/></clipPath><clipPath id="clip9"><rect x="30" y="120" width="899" height="268"/></clipPath><clipPath id="clip10"><rect x="30" y="120" width="899" height="268"/></clipPath><clipPath id="clip11"><rect x="30" y="120" width="899" height="268"/></clipPath><clipPath id="clip12"><rect x="30" y="120" width="899" height="268"/></clipPath><clipPath id="clip13"><rect x="30" y="120" width="899" height="268"/></clipPath><clipPath id="clip14"><rect x="30" y="120" width="899" height="268"/></clipPath><clipPath id="clip15"><rect x="30" y="120" width="899" height="268"/></clipPath><clipPath id="clip16"><rect x="30" y="120" width="899" height="268"/></clipPath><clipPath id="clip17"><rect x="30" y="120" width="899" height="268"/></clipPath></defs><g clip-path="url(#clip0)"><rect x="0" y="0" width="960" height="720" fill="#FFFFFF"/><text font-family="Verdana,Verdana_MSFontService,sans-serif" font-weight="400" font-size="59" transform="translate(39.8362 93)">Hello!<tspan font-family="Arial,Arial_MSFontService,sans-serif" font-size="24" x="867.291" y="594">1</tspan></text><g clip-path="url(#clip1)"><path d="M86 303 268 303 268 344 86 344ZM485 221 667 221 667 344 485 344Z" fill="#4472C4"/></g><g clip-path="url(#clip2)"><path d="M268 262 449 262 449 344 268 344ZM667 180 848 180 848 344 667 344Z" fill="#ED7D31"/></g><g clip-path="url(#clip3)"><path d="M0 0 0.000104987 206" stroke="#000000" stroke-width="1.33333" stroke-linejoin="round" stroke-miterlimit="10" fill="none" fill-rule="evenodd" transform="matrix(1 0 0 -1 68.5001 344.5)"/></g><g clip-path="url(#clip4)"><path d="M68.5001 344.5 73.5001 344.5M68.5001 336.5 73.5001 336.5M68.5001 328.5 73.5001 328.5M68.5001 319.5 73.5001 319.5M68.5001 311.5 73.5001 311.5M68.5001 303.5 73.5001 303.5M68.5001 295.5 73.5001 295.5M68.5001 286.5 73.5001 286.5M68.5001 278.5 73.5001 278.5M68.5001 270.5 73.5001 270.5M68.5001 262.5 73.5001 262.5M68.5001 254.5 73.5001 254.5M68.5001 245.5 73.5001 245.5M68.5001 237.5 73.5001 237.5M68.5001 229.5 73.5001 229.5M68.5001 221.5 73.5001 221.5M68.5001 212.5 73.5001 212.5M68.5001 204.5 73.5001 204.5M68.5001 196.5 73.5001 196.5M68.5001 188.5 73.5001 188.5M68.5001 180.5 73.5001 180.5M68.5001 171.5 73.5001 171.5M68.5001 163.5 73.5001 163.5M68.5001 155.5 73.5001 155.5M68.5001 147.5 73.5001 147.5M68.5001 138.5 73.5001 138.5M68.5001 344.5 74.5001 344.5M68.5001 303.5 74.5001 303.5M68.5001 262.5 74.5001 262.5M68.5001 221.5 74.5001 221.5M68.5001 180.5 74.5001 180.5M68.5001 138.5 74.5001 138.5" stroke="#000000" stroke-width="1.33333" stroke-linejoin="round" stroke-miterlimit="10" fill="none"/></g><g clip-path="url(#clip5)"><path d="M68.5001 344.5 865.5 344.5" stroke="#000000" stroke-width="1.33333" stroke-linejoin="round" stroke-miterlimit="10" fill="none" fill-rule="evenodd"/></g><g clip-path="url(#clip6)"><text font-family="Verdana,Verdana_MSFontService,sans-serif" font-weight="400" font-size="19" transform="translate(38.9029 351)">0</text></g><g clip-path="url(#clip7)"><text font-family="Verdana,Verdana_MSFontService,sans-serif" font-weight="400" font-size="19" transform="translate(38.9029 310)">1</text></g><g clip-path="url(#clip8)"><text font-family="Verdana,Verdana_MSFontService,sans-serif" font-weight="400" font-size="19" transform="translate(38.9029 269)">2</text></g><g clip-path="url(#clip9)"><text font-family="Verdana,Verdana_MSFontService,sans-serif" font-weight="400" font-size="19" transform="translate(38.9029 228)">3</text></g><g clip-path="url(#clip10)"><text font-family="Verdana,Verdana_MSFontService,sans-serif" font-weight="400" font-size="19" transform="translate(38.9029 187)">4</text></g><g clip-path="url(#clip11)"><text font-family="Verdana,Verdana_MSFontService,sans-serif" font-weight="400" font-size="19" transform="translate(38.9029 146)">5</text></g><g clip-path="url(#clip12)"><text font-family="Verdana,Verdana_MSFontService,sans-serif" font-weight="400" font-size="19" transform="translate(261.353 376)">X</text></g><g clip-path="url(#clip13)"><text font-family="Verdana,Verdana_MSFontService,sans-serif" font-weight="400" font-size="19" transform="translate(660.758 376)">Y</text></g><g clip-path="url(#clip14)"><rect x="889" y="234" width="10" height="11" fill="#4472C4"/></g><g clip-path="url(#clip15)"><text font-family="Verdana,Verdana_MSFontService,sans-serif" font-weight="400" font-size="19" transform="translate(903.464 246)">A</text></g><g clip-path="url(#clip16)"><rect x="889" y="265" width="10" height="10" fill="#ED7D31"/></g><g clip-path="url(#clip17)"><text font-family="Verdana,Verdana_MSFontService,sans-serif" font-weight="400" font-size="19" transform="translate(903.464 277)">B</text></g><text font-family="Verdana,Verdana_MSFontService,sans-serif" font-weight="400" font-size="37" transform="translate(39.8362 430)">Hello, Plotance!</text></g></svg>