<svg width="1280" height="720" xmlns="http://www.w3.org/2000/svg" xmlns:xlink="http://www.w3.org/1999/xlink" overflow="hidden"><defs><clipPath id="clip0"><rect x="0" y="0" width="1280" height="720"/></clipPath><clipPath id="clip1"><rect x="71" y="226" width="902" height="344"/></clipPath><clipPath id="clip2"><rect x="71" y="226" width="902" height="344"/></clipPath><clipPath id="clip3"><rect x="71" y="226" width="902" height="344"/></clipPath><clipPath id="clip4"><rect x="71" y="226" width="902" height="344"/></clipPath><clipPath id="clip5"><rect x="155" y="244" width="795" height="285"/></clipPath><clipPath id="clip6"><rect x="71" y="226" width="902" height="344"/></clipPath><clipPath id="clip7"><rect x="71" y="226" width="902" height="344"/></clipPath><clipPath id="clip8"><rect x="71" y="226" width="902" height="344"/></clipPath><clipPath id="clip9"><rect x="71" y="226" width="902" height="344"/></clipPath><clipPath id="clip10"><rect x="71" y="226" width="902" height="344"/></clipPath><clipPath id="clip11"><rect x="71" y="226" width="902" height="344"/></clipPath><clipPath id="clip12"><rect x="71" y="226" width="902" height="344"/></clipPath><clipPath id="clip13"><rect x="71" y="226" width="902" height="344"/></clipPath><clipPath id="clip14"><rect x="71" y="226" width="902" height="344"/></clipPath><clipPath id="clip15"><rect x="71" y="226" width="902" height="344"/></clipPath><clipPath id="clip16"><rect x="71" y="226" width="902" height="344"/></clipPath><clipPath id="clip17"><rect x="71" y="226" width="902" height="344"/></clipPath><clipPath id="clip18"><rect x="71" y="226" width="902" height="344"/></clipPath><clipPath id="clip19"><rect x="71" y="226" width="902" height="344"/></clipPath></defs><g clip-path="url(#clip0)"><rect x="0" y="0" width="1280" height="720" fill="#FFFFFF"/><path d="M984.5 0.500053 1112.5 720.5" stroke="#BFBFBF" stroke-linecap="round" stroke-linejoin="round" stroke-miterlimit="10" fill="none" fill-rule="evenodd"/><path d="M0 0 500.111 333.5" stroke="#D9D9D9" stroke-linecap="round" stroke-linejoin="round" stroke-miterlimit="10" fill="none" fill-rule="evenodd" transform="matrix(-1 0 0 1 1280.61 387.5)"/><path d="M1178.94-1 1280-1 1280 720 964 720 1178.94-1Z" fill="#90C226" fill-rule="evenodd" fill-opacity="0.301961"/><path d="M1008-1 1280-1 1280 720 1135.09 720 1008-1Z" fill="#90C226" fill-rule="evenodd" fill-opacity="0.2"/><path d="M938 720 1280 320 1280 720Z" fill="#54A021" fill-rule="evenodd" fill-opacity="0.721569"/><path d="M980-1 1280-1 1280 720 1239.68 720 980-1Z" fill="#3F7819" fill-rule="evenodd" fill-opacity="0.701961"/><path d="M1251.5-1 1280-1 1280 720 1144 720 1251.5-1Z" fill="#C0E474" fill-rule="evenodd" fill-opacity="0.701961"/><path d="M1148-1 1280-1 1280 720 1265.17 720 1148-1Z" fill="#90C226" fill-rule="evenodd" fill-opacity="0.65098"/><path d="M1089 720 1280 377 1280 720Z" fill="#90C226" fill-rule="evenodd" fill-opacity="0.8"/><path d="M0 720 0 421 47 720Z" fill="#90C226" fill-rule="evenodd" fill-opacity="0.85098"/><text fill="#90C226" font-family="Trebuchet MS,Trebuchet MS_MSFontService,sans-serif" font-weight="400" font-size="48" transform="translate(80.7112 116)">Page views of 2025-01<tspan fill="#898989" font-size="12" x="708.333" y="542">5/18/2025</tspan><tspan font-size="12" x="877.796" y="542">1</tspan></text><g clip-path="url(#clip1)"><path d="M0 0 0.000104987 284" stroke="#000000" stroke-width="1.33333" stroke-linecap="round" stroke-linejoin="round" stroke-miterlimit="10" fill="none" fill-rule="evenodd" transform="matrix(1 0 0 -1 155.5 528.5)"/></g><g clip-path="url(#clip2)"><path d="M155.5 528.5 159.5 528.5M155.5 520.5 159.5 520.5M155.5 512.5 159.5 512.5M155.5 503.5 159.5 503.5M155.5 495.5 159.5 495.5M155.5 487.5 159.5 487.5M155.5 479.5 159.5 479.5M155.5 471.5 159.5 471.5M155.5 463.5 159.5 463.5M155.5 455.5 159.5 455.5M155.5 447.5 159.5 447.5M155.5 439.5 159.5 439.5M155.5 430.5 159.5 430.5M155.5 422.5 159.5 422.5M155.5 414.5 159.5 414.5M155.5 406.5 159.5 406.5M155.5 398.5 159.5 398.5M155.5 390.5 159.5 390.5M155.5 382.5 159.5 382.5M155.5 374.5 159.5 374.5M155.5 366.5 159.5 366.5M155.5 357.5 159.5 357.5M155.5 349.5 159.5 349.5M155.5 341.5 159.5 341.5M155.5 333.5 159.5 333.5M155.5 325.5 159.5 325.5M155.5 317.5 159.5 317.5M155.5 309.5 159.5 309.5M155.5 301.5 159.5 301.5M155.5 293.5 159.5 293.5M155.5 284.5 159.5 284.5M155.5 276.5 159.5 276.5M155.5 268.5 159.5 268.5M155.5 260.5 159.5 260.5M155.5 252.5 159.5 252.5M155.5 244.5 159.5 244.5M155.5 528.5 161.5 528.5M155.5 487.5 161.5 487.5M155.5 447.5 161.5 447.5M155.5 406.5 161.5 406.5M155.5 366.5 161.5 366.5M155.5 325.5 161.5 325.5M155.5 284.5 161.5 284.5M155.5 244.5 161.5 244.5" stroke="#000000" stroke-width="1.33333" stroke-linecap="round" stroke-linejoin="round" stroke-miterlimit="10" fill="none"/></g><g clip-path="url(#clip3)"><path d="M155.5 528.5 949.5 528.5" stroke="#000000" stroke-width="1.33333" stroke-linecap="round" stroke-linejoin="round" stroke-miterlimit="10" fill="none" fill-rule="evenodd"/></g><g clip-path="url(#clip4)"><path d="M155.5 523.5 155.5 528.5M192.5 523.5 192.5 528.5M229.5 523.5 229.5 528.5M266.5 523.5 266.5 528.5M303.5 523.5 303.5 528.5M340.5 523.5 340.5 528.5M377.5 523.5 377.5 528.5M414.5 523.5 414.5 528.5M451.5 523.5 451.5 528.5M488.5 523.5 488.5 528.5M525.5 523.5 525.5 528.5M562.5 523.5 562.5 528.5M599.5 523.5 599.5 528.5M636.5 523.5 636.5 528.5M673.5 523.5 673.5 528.5M710.5 523.5 710.5 528.5M748.5 523.5 748.5 528.5M785.5 523.5 785.5 528.5M822.5 523.5 822.5 528.5M859.5 523.5 859.5 528.5M896.5 523.5 896.5 528.5M933.5 523.5 933.5 528.5M155.5 522.5 155.5 528.5M340.5 522.5 340.5 528.5M525.5 522.5 525.5 528.5M710.5 522.5 710.5 528.5M896.5 522.5 896.5 528.5" stroke="#000000" stroke-width="1.33333" stroke-linecap="round" stroke-linejoin="round" stroke-miterlimit="10" fill="none"/></g><g clip-path="url(#clip5)"><path d="M155.5 322.5 181.5 320.5 208.5 324.5 234.5 323.5 261.5 308.5 287.5 305.5 313.5 303.5 340.5 318.5 366.5 310.5 393.5 315.5 419.5 313.5 446.5 306.5 472.5 294.5 499.5 297.5 525.5 310.5 552.5 303.5 578.5 303.5 605.5 307.5 631.5 291.5 658.5 283.5 684.5 290.5 710.5 296.5 737.5 295.5 763.5 294.5 790.5 295.5 816.5 285.5 843.5 279.5 869.5 276.5 896.5 289.5 922.5 291.5 949.5 284.5" stroke="#90C226" stroke-width="1.33333" stroke-linecap="round" stroke-linejoin="round" stroke-miterlimit="10" fill="none"/></g><g clip-path="url(#clip6)"><path d="M155.111 319.833 158.111 322.833 155.111 325.833 152.111 322.833Z" fill="#90C226"/><path d="M182.111 316.833 185.111 319.833 182.111 322.833 179.111 319.833Z" fill="#90C226"/><path d="M208.111 321.833 211.111 324.833 208.111 327.833 205.111 324.833Z" fill="#90C226"/><path d="M235.111 320.833 238.111 323.833 235.111 326.833 232.111 323.833Z" fill="#90C226"/><path d="M261.111 304.833 264.111 307.833 261.111 310.833 258.111 307.833Z" fill="#90C226"/><path d="M288.111 302.833 291.111 305.833 288.111 308.833 285.111 305.833Z" fill="#90C226"/><path d="M314.111 299.833 317.111 302.833 314.111 305.833 311.111 302.833Z" fill="#90C226"/><path d="M340.111 314.833 343.111 317.833 340.111 320.833 337.111 317.833Z" fill="#90C226"/><path d="M367.111 307.833 370.111 310.833 367.111 313.833 364.111 310.833Z" fill="#90C226"/><path d="M393.111 311.833 396.111 314.833 393.111 317.833 390.111 314.833Z" fill="#90C226"/><path d="M420.111 310.833 423.111 313.833 420.111 316.833 417.111 313.833Z" fill="#90C226"/><path d="M446.111 302.833 449.111 305.833 446.111 308.833 443.111 305.833Z" fill="#90C226"/><path d="M473.111 290.833 476.111 293.833 473.111 296.833 470.111 293.833Z" fill="#90C226"/><path d="M499.111 294.833 502.111 297.833 499.111 300.833 496.111 297.833Z" fill="#90C226"/><path d="M526.111 306.833 529.111 309.833 526.111 312.833 523.111 309.833Z" fill="#90C226"/><path d="M552.111 299.833 555.111 302.833 552.111 305.833 549.111 302.833Z" fill="#90C226"/><path d="M579.111 300.833 582.111 303.833 579.111 306.833 576.111 303.833Z" fill="#90C226"/><path d="M605.111 303.833 608.111 306.833 605.111 309.833 602.111 306.833Z" fill="#90C226"/><path d="M632.111 288.833 635.111 291.833 632.111 294.833 629.111 291.833Z" fill="#90C226"/><path d="M658.111 279.833 661.111 282.833 658.111 285.833 655.111 282.833Z" fill="#90C226"/><path d="M685.111 287.833 688.111 290.833 685.111 293.833 682.111 290.833Z" fill="#90C226"/><path d="M711.111 292.833 714.111 295.833 711.111 298.833 708.111 295.833Z" fill="#90C226"/><path d="M737.111 292.833 740.111 295.833 737.111 298.833 734.111 295.833Z" fill="#90C226"/><path d="M764.111 290.833 767.111 293.833 764.111 296.833 761.111 293.833Z" fill="#90C226"/><path d="M790.111 292.833 793.111 295.833 790.111 298.833 787.111 295.833Z" fill="#90C226"/><path d="M817.111 281.833 820.111 284.833 817.111 287.833 814.111 284.833Z" fill="#90C226"/><path d="M843.111 275.833 846.111 278.833 843.111 281.833 840.111 278.833Z" fill="#90C226"/><path d="M870.111 273.833 873.111 276.833 870.111 279.833 867.111 276.833Z" fill="#90C226"/><path d="M896.111 286.833 899.111 289.833 896.111 292.833 893.111 289.833Z" fill="#90C226"/><path d="M923.111 288.833 926.111 291.833 923.111 294.833 920.111 291.833Z" fill="#90C226"/><path d="M949.111 281.833 952.111 284.833 949.111 287.833 946.111 284.833Z" fill="#90C226"/></g><g clip-path="url(#clip7)"><text font-family="Trebuchet MS,Trebuchet MS_MSFontService,sans-serif" font-weight="400" font-size="19" transform="translate(128.711 535)">0</text></g><g clip-path="url(#clip8)"><text font-family="Trebuchet MS,Trebuchet MS_MSFontService,sans-serif" font-weight="400" font-size="19" transform="translate(79.7778 494)">100000</text></g><g clip-path="url(#clip9)"><text font-family="Trebuchet MS,Trebuchet MS_MSFontService,sans-serif" font-weight="400" font-size="19" transform="translate(79.7778 454)">200000</text></g><g clip-path="url(#clip10)"><text font-family="Trebuchet MS,Trebuchet MS_MSFontService,sans-serif" font-weight="400" font-size="19" transform="translate(79.7778 413)">300000</text></g><g clip-path="url(#clip11)"><text font-family="Trebuchet MS,Trebuchet MS_MSFontService,sans-serif" font-weight="400" font-size="19" transform="translate(79.7778 372)">400000</text></g><g clip-path="url(#clip12)"><text font-family="Trebuchet MS,Trebuchet MS_MSFontService,sans-serif" font-weight="400" font-size="19" transform="translate(79.7778 332)">500000</text></g><g clip-path="url(#clip13)"><text font-family="Trebuchet MS,Trebuchet MS_MSFontService,sans-serif" font-weight="400" font-size="19" transform="translate(79.7778 291)">600000</text></g><g clip-path="url(#clip14)"><text font-family="Trebuchet MS,Trebuchet MS_MSFontService,sans-serif" font-weight="400" font-size="19" transform="translate(79.7778 251)">700000</text></g><g clip-path="url(#clip15)"><text font-family="Trebuchet MS,Trebuchet MS_MSFontService,sans-serif" font-weight="400" font-size="19" transform="translate(150.283 558)">1</text></g><g clip-path="url(#clip16)"><text font-family="Trebuchet MS,Trebuchet MS_MSFontService,sans-serif" font-weight="400" font-size="19" transform="translate(335.554 558)">8</text></g><g clip-path="url(#clip17)"><text font-family="Trebuchet MS,Trebuchet MS_MSFontService,sans-serif" font-weight="400" font-size="19" transform="translate(515.932 558)">15</text></g><g clip-path="url(#clip18)"><text font-family="Trebuchet MS,Trebuchet MS_MSFontService,sans-serif" font-weight="400" font-size="19" transform="translate(701.203 558)">22</text></g><g clip-path="url(#clip19)"><text font-family="Trebuchet MS,Trebuchet MS_MSFontService,sans-serif" font-weight="400" font-size="19" transform="translate(886.474 558)">29</text></g><text fill="#404040" font-family="Trebuchet MS,Trebuchet MS_MSFontService,sans-serif" font-weight="400" font-size="24" transform="translate(80.7112 598)">We are growing!</text></g></svg>