<svg width="960" height="720" xmlns="http://www.w3.org/2000/svg" xmlns:xlink="http://www.w3.org/1999/xlink" overflow="hidden"><defs><linearGradient x1="139.559" y1="122.056" x2="139.559" y2="148.93" gradientUnits="userSpaceOnUse" spreadMethod="pad" id="fill0"><stop offset="0" stop-color="#B3B2B3"/><stop offset="0.38" stop-color="#AFAEAF"/><stop offset="0.76" stop-color="#A2A2A2"/><stop offset="1" stop-color="#979797"/></linearGradient><linearGradient x1="142.916" y1="149.057" x2="160.564" y2="149.057" gradientUnits="userSpaceOnUse" spreadMethod="pad" id="fill1"><stop offset="0" stop-color="#005BA1"/><stop offset="0.07" stop-color="#0060A9"/><stop offset="0.36" stop-color="#0071C8"/><stop offset="0.52" stop-color="#0078D4"/><stop offset="0.64" stop-color="#0074CD"/><stop offset="0.82" stop-color="#006ABB"/><stop offset="1" stop-color="#005BA1"/></linearGradient><clipPath id="clip2"><rect x="349" y="121" width="37" height="38"/></clipPath><clipPath id="clip3"><rect x="349" y="121" width="37" height="38"/></clipPath><clipPath id="clip4"><rect x="349" y="121" width="37" height="38"/></clipPath><linearGradient x1="18.5" y1="11.0589" x2="18.5" y2="0" gradientUnits="userSpaceOnUse" spreadMethod="pad" id="fill5"><stop offset="0" stop-color="#005BA1"/><stop offset="0.199" stop-color="#005BA1"/><stop offset="1" stop-color="#0078D4"/></linearGradient><linearGradient x1="18.5" y1="26.1323" x2="18.5" y2="10.8677" gradientUnits="userSpaceOnUse" spreadMethod="pad" id="fill6"><stop offset="0" stop-color="#198AB3"/><stop offset="0.172" stop-color="#32BEDD"/><stop offset="0.5" stop-color="#50E6FF"/><stop offset="0.5" stop-color="#4FE4FD"/><stop offset="0.5" stop-color="#4BDDF8"/><stop offset="0.5" stop-color="#44D2EE"/><stop offset="0.5" stop-color="#3AC1E0"/><stop offset="0.5" stop-color="#2DABCE"/><stop offset="0.5" stop-color="#1D90B8"/><stop offset="0.5" stop-color="#198AB3"/><stop offset="0.662" stop-color="#32BEDD"/><stop offset="0.975" stop-color="#50E6FF"/><stop offset="1" stop-color="#50E6FF"/></linearGradient><clipPath id="clip7"><rect x="574" y="121" width="37" height="38"/></clipPath><clipPath id="clip8"><rect x="574" y="121" width="37" height="38"/></clipPath><clipPath id="clip9"><rect x="574" y="121" width="37" height="38"/></clipPath><linearGradient x1="20.3664" y1="32.7717" x2="15.4496" y2="4.89839" gradientUnits="userSpaceOnUse" spreadMethod="pad" id="fill10"><stop offset="0" stop-color="#0078D4"/><stop offset="0.15" stop-color="#0078D4"/><stop offset="0.8" stop-color="#5EA0EF"/><stop offset="1" stop-color="#83B9F9"/></linearGradient><linearGradient x1="799.888" y1="142.576" x2="828.352" y2="142.576" gradientUnits="userSpaceOnUse" spreadMethod="pad" id="fill11"><stop offset="0" stop-color="#005BA1"/><stop offset="0.07" stop-color="#0060A9"/><stop offset="0.36" stop-color="#0071C8"/><stop offset="0.52" stop-color="#0078D4"/><stop offset="0.64" stop-color="#0074CD"/><stop offset="0.82" stop-color="#006ABB"/><stop offset="1" stop-color="#005BA1"/></linearGradient><clipPath id="clip12"><rect x="124" y="255" width="38" height="37"/></clipPath><clipPath id="clip13"><rect x="124" y="255" width="38" height="37"/></clipPath><clipPath id="clip14"><rect x="124" y="255" width="38" height="37"/></clipPath><linearGradient x1="18.4527" y1="22.8866" x2="18.4527" y2="14.7548" gradientUnits="userSpaceOnUse" spreadMethod="pad" id="fill15"><stop offset="0" stop-color="#29BADE"/><stop offset="1" stop-color="#50E6FF"/></linearGradient><linearGradient x1="13.2501" y1="30.0646" x2="13.2501" y2="6.93544" gradientUnits="userSpaceOnUse" spreadMethod="pad" id="fill16"><stop offset="0" stop-color="#32BEDD"/><stop offset="0.041" stop-color="#32BEDD"/><stop offset="0.495" stop-color="#50E6FF"/><stop offset="0.92" stop-color="#C3F1FF"/><stop offset="1" stop-color="#C3F1FF"/></linearGradient><linearGradient x1="15.3427" y1="20.6522" x2="15.3427" y2="0.522111" gradientUnits="userSpaceOnUse" spreadMethod="pad" id="fill17"><stop offset="0" stop-color="#0078D4"/><stop offset="0.244" stop-color="#0078D4"/><stop offset="0.6" stop-color="#2E8CE1"/><stop offset="0.933" stop-color="#589EED"/><stop offset="1" stop-color="#589EED"/></linearGradient><linearGradient x1="28.0131" y1="30.0646" x2="28.0131" y2="8.61894" gradientUnits="userSpaceOnUse" spreadMethod="pad" id="fill18"><stop offset="0" stop-color="#005BA1"/><stop offset="0.399" stop-color="#0078D4"/><stop offset="0.857" stop-color="#5EA0EF"/><stop offset="1" stop-color="#5EA0EF"/></linearGradient><linearGradient x1="371.798" y1="261.496" x2="379.696" y2="261.496" gradientUnits="userSpaceOnUse" spreadMethod="pad" id="fill19"><stop offset="0" stop-color="#005BA1"/><stop offset="0.068" stop-color="#0060A9"/><stop offset="0.517" stop-color="#0078D4"/><stop offset="0.82" stop-color="#006ABB"/><stop offset="1" stop-color="#005BA1"/></linearGradient><linearGradient x1="369.171" y1="282.59" x2="369.171" y2="259.833" gradientUnits="userSpaceOnUse" spreadMethod="pad" id="fill20"><stop offset="0" stop-color="#198AB3"/><stop offset="0.097" stop-color="#209EC5"/><stop offset="0.396" stop-color="#2EC7E9"/><stop offset="0.775" stop-color="#32D4F5"/><stop offset="1" stop-color="#32D4F5"/></linearGradient><linearGradient x1="359.629" y1="267.409" x2="373.167" y2="267.409" gradientUnits="userSpaceOnUse" spreadMethod="pad" id="fill21"><stop offset="0" stop-color="#005BA1"/><stop offset="0.068" stop-color="#0060A9"/><stop offset="0.517" stop-color="#0078D4"/><stop offset="0.82" stop-color="#006ABB"/><stop offset="1" stop-color="#005BA1"/></linearGradient><radialGradient cx="8.647" cy="5.828" r="3.632" gradientUnits="userSpaceOnUse" spreadMethod="pad" id="fill22" gradientTransform="matrix(2.05556 0 0 -2.05556 349 296.111)"><stop offset="0" stop-color="#F2F2F2"/><stop offset="0.58" stop-color="#EEEEEE"/><stop offset="1" stop-color="#E6E6E6"/></radialGradient><linearGradient x1="579.324" y1="275.887" x2="605.682" y2="275.887" gradientUnits="userSpaceOnUse" spreadMethod="pad" id="fill23"><stop offset="0" stop-color="#005BA1"/><stop offset="0.07" stop-color="#0060A9"/><stop offset="0.36" stop-color="#0071C8"/><stop offset="0.52" stop-color="#0078D4"/><stop offset="0.64" stop-color="#0074CD"/><stop offset="0.82" stop-color="#006ABB"/><stop offset="1" stop-color="#005BA1"/></linearGradient><clipPath id="clip24"><rect x="798" y="255" width="38" height="37"/></clipPath><clipPath id="clip25"><rect x="798" y="255" width="38" height="37"/></clipPath><clipPath id="clip26"><rect x="798" y="255" width="38" height="37"/></clipPath><linearGradient x1="11.7783" y1="23.3573" x2="36.9753" y2="23.3573" gradientUnits="userSpaceOnUse" spreadMethod="pad" id="fill27"><stop offset="0" stop-color="#C74634"/><stop offset="0.5" stop-color="#DB897D"/><stop offset="1" stop-color="#C74634"/></linearGradient><linearGradient x1="11.5091" y1="16.6171" x2="11.5091" y2="0" gradientUnits="userSpaceOnUse" spreadMethod="pad" id="fill28"><stop offset="0" stop-color="#32BEDD"/><stop offset="1" stop-color="#50E6FF"/></linearGradient><radialGradient cx="-105.006" cy="-10.409" r="5.954" gradientUnits="userSpaceOnUse" spreadMethod="pad" id="fill29" gradientTransform="matrix(2.18711 0 0 2.16811 372.56 429.471)"><stop offset="0" stop-color="#5EA0EF"/><stop offset="0.183" stop-color="#5EA0EF"/><stop offset="1" stop-color="#0078D4"/></radialGradient><clipPath id="clip30"><path d="M155.601 403.897C157.264 410.856 152.97 417.846 146.01 419.508 139.051 421.171 132.061 416.877 130.399 409.918 128.736 402.958 133.03 395.969 139.989 394.306 146.949 392.643 153.938 396.937 155.601 403.897Z"/></clipPath><linearGradient x1="5.32389" y1="20.8844" x2="31.6761" y2="20.8844" gradientUnits="userSpaceOnUse" spreadMethod="pad" id="fill31"><stop offset="0" stop-color="#005BA1"/><stop offset="0.07" stop-color="#0060A9"/><stop offset="0.36" stop-color="#0071C8"/><stop offset="0.52" stop-color="#0078D4"/><stop offset="0.64" stop-color="#0074CD"/><stop offset="0.82" stop-color="#006ABB"/><stop offset="1" stop-color="#005BA1"/></linearGradient><linearGradient x1="5.32389" y1="20.8844" x2="31.6761" y2="20.8844" gradientUnits="userSpaceOnUse" spreadMethod="pad" id="fill32"><stop offset="0" stop-color="#005BA1"/><stop offset="0.07" stop-color="#0060A9"/><stop offset="0.36" stop-color="#0071C8"/><stop offset="0.52" stop-color="#0078D4"/><stop offset="0.64" stop-color="#0074CD"/><stop offset="0.82" stop-color="#006ABB"/><stop offset="1" stop-color="#005BA1"/></linearGradient><linearGradient x1="817" y1="414.304" x2="817" y2="390.491" gradientUnits="userSpaceOnUse" spreadMethod="pad" id="fill33"><stop offset="0" stop-color="#0078D4"/><stop offset="0.82" stop-color="#5EA0EF"/><stop offset="1" stop-color="#5EA0EF"/></linearGradient><linearGradient x1="817" y1="423.509" x2="817" y2="414.304" gradientUnits="userSpaceOnUse" spreadMethod="pad" id="fill34"><stop offset="0" stop-color="#CCCCCC"/><stop offset="0.15" stop-color="#CCCCCC"/><stop offset="1" stop-color="#707070"/></linearGradient><radialGradient cx="9.43" cy="7.03" r="7.27" gradientUnits="userSpaceOnUse" spreadMethod="pad" id="fill35" gradientTransform="matrix(2.11111 0 0 2.11111 798 388)"><stop offset="0" stop-color="#F2F2F2"/><stop offset="0.58" stop-color="#EEEEEE"/><stop offset="1" stop-color="#E6E6E6"/></radialGradient><linearGradient x1="125.056" y1="542.626" x2="143" y2="542.626" gradientUnits="userSpaceOnUse" spreadMethod="pad" id="fill36"><stop offset="0" stop-color="#005BA1"/><stop offset="0.07" stop-color="#0060A9"/><stop offset="0.36" stop-color="#0071C8"/><stop offset="0.52" stop-color="#0078D4"/><stop offset="0.64" stop-color="#0074CD"/><stop offset="0.81" stop-color="#006ABB"/><stop offset="0.99" stop-color="#005BA1"/><stop offset="1" stop-color="#005BA1"/></linearGradient><linearGradient x1="10.9972" y1="14.43" x2="10.9972" y2="35.335" gradientUnits="userSpaceOnUse" spreadMethod="pad" id="fill37"><stop offset="0" stop-color="#B3B2B3"/><stop offset="0.38" stop-color="#AFAEAF"/><stop offset="0.76" stop-color="#A2A2A2"/><stop offset="1" stop-color="#979797"/></linearGradient><linearGradient x1="23.2894" y1="32.3544" x2="23.2894" y2="14.3683" gradientUnits="userSpaceOnUse" spreadMethod="pad" id="fill38"><stop offset="0" stop-color="#0078D4"/><stop offset="0.16" stop-color="#1380DA"/><stop offset="0.53" stop-color="#3C91E5"/><stop offset="0.82" stop-color="#559CEC"/><stop offset="1" stop-color="#5EA0EF"/></linearGradient><linearGradient x1="5.32389" y1="16.8144" x2="31.6556" y2="16.8144" gradientUnits="userSpaceOnUse" spreadMethod="pad" id="fill39"><stop offset="0" stop-color="#005BA1"/><stop offset="0.07" stop-color="#0060A9"/><stop offset="0.36" stop-color="#0071C8"/><stop offset="0.52" stop-color="#0078D4"/><stop offset="0.64" stop-color="#0074CD"/><stop offset="0.82" stop-color="#006ABB"/><stop offset="1" stop-color="#005BA1"/></linearGradient><linearGradient x1="803.468" y1="543.449" x2="830.532" y2="543.449" gradientUnits="userSpaceOnUse" spreadMethod="pad" id="fill40"><stop offset="0" stop-color="#005BA1"/><stop offset="0.07" stop-color="#0060A9"/><stop offset="0.36" stop-color="#0071C8"/><stop offset="0.52" stop-color="#0078D4"/><stop offset="0.64" stop-color="#0074CD"/><stop offset="0.82" stop-color="#006ABB"/><stop offset="1" stop-color="#005BA1"/></linearGradient><radialGradient cx="9.36" cy="10.57" r="7.07" gradientUnits="userSpaceOnUse" spreadMethod="pad" id="fill41" gradientTransform="matrix(2.11111 0 0 2.11111 798 522)"><stop offset="0" stop-color="#F2F2F2"/><stop offset="0.58" stop-color="#EEEEEE"/><stop offset="1" stop-color="#E6E6E6"/></radialGradient></defs><g><rect x="0" y="0" width="960" height="720" fill="#FFFFFF"/><text font-family="Verdana,Verdana_MSFontService,sans-serif" font-weight="400" font-size="46.9333" transform="translate(39.8362 82)">Databases (1/2)</text><text font-family="Arial,Arial_MSFontService,sans-serif" font-weight="400" font-size="24" transform="translate(893.461 687)">24</text><g><g><g><path d="M139.559 122.056 125.436 130.247 125.436 132.273 128.032 132.273 128.032 147.642 130.587 147.642 130.587 132.273 148.531 132.273 148.531 148.93 151.086 148.93 151.086 132.273 153.682 132.273 153.682 130.247 139.559 122.056Z" fill="url(#fill0)"/><path d="M133.141 147.642 138.271 147.642 138.271 142.533 133.141 142.533ZM140.826 147.642 145.956 147.642 145.956 142.533 140.889 142.533ZM133.141 140 138.271 140 138.271 134.828 133.141 134.828ZM140.889 134.828 140.889 140 145.956 140 145.956 134.828Z" fill="#50E6FF"/><path d="M151.74 142.977C146.863 142.977 143 141.71 143 140.169L143 155.137C143 156.678 146.884 157.923 151.698 157.944L151.824 157.944C156.701 157.944 160.649 156.678 160.649 155.137L160.649 140.169C160.564 141.71 156.617 142.977 151.74 142.977Z" fill="url(#fill1)"/><path d="M160.564 140.169C160.564 141.71 156.617 142.977 151.74 142.977 146.863 142.977 143 141.71 143 140.169 143 138.628 146.948 137.361 151.824 137.361 156.701 137.361 160.649 138.607 160.649 140.169" fill="#E8E8E8"/><path d="M158.517 140C158.517 140.992 155.477 141.794 151.74 141.794 148.003 141.794 144.984 140.929 144.984 140 144.984 139.071 148.003 138.206 151.74 138.206 155.477 138.206 158.517 139.008 158.517 140" fill="#50E6FF"/><path d="M151.74 140.359C149.929 140.315 148.121 140.543 146.378 141.034 148.12 141.536 149.928 141.771 151.74 141.731 153.552 141.771 155.36 141.536 157.102 141.034 155.359 140.543 153.551 140.315 151.74 140.359Z" fill="#32BEDD"/></g></g></g><g clip-path="url(#clip2)"><g clip-path="url(#clip3)"><g clip-path="url(#clip4)"><path d="M18.5 0 2.36389 9.22944 2.36389 27.6678 18.5 37 34.6361 27.7706 34.6361 9.27056ZM31.6556 25.8383 18.5 33.4439 5.34444 25.9185 5.34444 11.0589 18.5 3.45333 31.6556 11.0794Z" fill="#0078D4" transform="matrix(1 0 0 1.02703 349 121)"/><path d="M18.5 0 18.5 0 2.36389 9.22944 5.34444 11.0589 18.5 3.45333 18.5 3.45333 31.6556 11.0589 34.6361 9.22944 18.5 0Z" fill="url(#fill5)" transform="matrix(1 0 0 1.02703 349 121)"/><path d="M26.1878 21.5319C26.0307 21.2736 25.7993 21.0687 25.5238 20.9441 23.8249 17.2353 20.3573 14.6443 16.3191 14.0662L29.6329 6.37222 26.5372 4.59622 11.3754 13.3611C10.6375 13.7859 10.3837 14.7284 10.8084 15.4663 11.0842 15.9455 11.5955 16.2402 12.1483 16.2389 12.211 16.2273 12.2728 16.2115 12.3333 16.1916L12.5903 17.2667C16.5683 16.3286 20.6728 18.2277 22.533 21.867L7.42672 30.5969 10.5101 32.3771 25.6246 23.6389C25.8261 23.5184 25.9965 23.3522 26.122 23.1538L26.2762 23.1168C26.2618 23.0572 26.2392 23.0037 26.2248 22.9441 26.4468 22.4963 26.433 21.9676 26.1878 21.5319Z" fill="#50E6FF" transform="matrix(1 0 0 1.02703 349 121)"/><path d="M24.8537 18.5267C22.7535 18.5267 21.0509 20.2293 21.0509 22.3295 21.0509 24.4297 22.7535 26.1323 24.8537 26.1323 26.9539 26.1323 28.6565 24.4297 28.6565 22.3295 28.6565 20.2293 26.9539 18.5267 24.8537 18.5267ZM12.1463 10.8266C10.0461 10.8266 8.3435 12.5292 8.3435 14.6294 8.3435 16.7296 10.0461 18.4322 12.1463 18.4322 14.2465 18.4322 15.9491 16.7296 15.9491 14.6294 15.9491 12.5292 14.2465 10.8266 12.1463 10.8266Z" fill="url(#fill6)" transform="matrix(1 0 0 1.02703 349 121)"/></g></g></g><g clip-path="url(#clip7)"><g clip-path="url(#clip8)"><g clip-path="url(#clip9)"><path d="M29.785 14.6972C29.6048 8.90054 24.7916 4.32937 18.9933 4.44822 14.3742 4.39344 10.2282 7.27273 8.66622 11.6201 3.76251 12.2831 0.0793695 16.4301-8.15498e-07 21.3778 0.147953 26.9854 4.80976 31.4135 10.4176 31.2732L28.4078 31.2732C33.0311 31.1577 36.7805 27.4917 37 22.8722 36.9149 18.7506 33.8641 15.2939 29.785 14.6972Z" fill="url(#fill10)" transform="matrix(1 0 0 1.02703 574 121)"/><path d="M26.5167 23.4333 26.5167 16.4444 24.6667 16.4444 24.6667 24.9339 29.7233 24.9339 29.7233 23.4333ZM11.84 20.0006C11.458 19.8471 11.1038 19.6318 10.7917 19.3633 10.6244 19.1861 10.5355 18.9491 10.545 18.7056 10.533 18.4603 10.6499 18.2265 10.8533 18.0889 11.1064 17.9144 11.4096 17.8277 11.7167 17.8422 12.4488 17.8093 13.1713 18.0189 13.7722 18.4383L13.7722 16.6706C13.1155 16.4262 12.4169 16.3144 11.7167 16.3417 10.9102 16.2989 10.1152 16.5469 9.47611 17.0406 8.91107 17.4762 8.58985 18.1569 8.61278 18.87 8.61278 19.9183 9.27056 20.7406 10.6683 21.3572 11.1221 21.5504 11.5501 21.7989 11.9428 22.0972 12.1375 22.2603 12.2504 22.501 12.2511 22.755 12.2509 23.0081 12.1284 23.2454 11.9222 23.3922 11.6427 23.5565 11.321 23.6351 10.9972 23.6183 10.1704 23.6115 9.37426 23.3047 8.75667 22.755L8.75667 24.6667C9.43559 25.0164 10.1928 25.1863 10.9561 25.16 11.8177 25.2116 12.6718 24.9727 13.3817 24.4817 13.8902 24.0001 14.1416 23.3067 14.06 22.6111 14.0703 22.0848 13.8875 21.573 13.5461 21.1722 13.0656 20.6666 12.4844 20.2674 11.84 20.0006ZM22.6111 23.2689C23.5218 21.8097 23.5218 19.9592 22.6111 18.5 22.2904 17.858 21.7906 17.3225 21.1722 16.9583 20.5457 16.6032 19.8368 16.4189 19.1167 16.4239 18.3403 16.407 17.5737 16.5987 16.8967 16.9789 16.2618 17.3327 15.7412 17.8604 15.3961 18.5 15.0326 19.2269 14.8493 20.0307 14.8617 20.8433 14.8657 21.5574 15.0345 22.2608 15.355 22.8989 15.6693 23.5334 16.1623 24.0621 16.7733 24.42 17.394 24.799 18.1021 25.0114 18.8289 25.0367L20.5967 27.0922 23.0839 27.0922 20.5556 24.8311C21.4069 24.5758 22.1371 24.0208 22.6111 23.2689ZM20.5556 22.755C20.1759 23.2259 19.5979 23.4921 18.9933 23.4744 18.3834 23.4955 17.8012 23.2197 17.4311 22.7344 16.9971 22.1406 16.786 21.4128 16.835 20.6789 16.7871 19.9451 16.998 19.2177 17.4311 18.6233 17.823 18.1403 18.4125 17.8607 19.0344 17.8628 19.6446 17.8361 20.226 18.1229 20.5761 18.6233 20.9812 19.2293 21.1762 19.9514 21.1311 20.6789 21.203 21.4183 20.9979 22.1581 20.5556 22.755Z" fill="#F2F2F2" transform="matrix(1 0 0 1.02703 574 121)"/></g></g></g><g><g><g><path d="M814.122 131.429C806.261 131.429 799.888 129.209 799.888 126.277L799.888 153.723C799.888 156.543 806.15 158.829 813.922 158.874L814.122 158.874C821.98 158.874 828.352 156.654 828.352 153.723L828.352 126.277C828.352 129.142 821.98 131.429 814.122 131.429Z" fill="url(#fill11)"/><path d="M828.352 126.277C828.352 129.142 821.98 131.429 814.122 131.429 806.263 131.429 799.887 129.208 799.887 126.277 799.887 123.347 806.259 121.126 814.122 121.126 821.984 121.126 828.352 123.346 828.352 126.277Z" fill="#E8E8E8"/><path d="M825.045 125.855C825.045 127.677 820.137 129.142 814.12 129.142 808.103 129.142 803.195 127.677 803.195 125.855 803.195 124.034 808.103 122.591 814.12 122.591 820.137 122.591 825.045 124.057 825.045 125.855Z" fill="#50E6FF"/><path d="M814.122 126.606C811.194 126.572 808.28 126.999 805.486 127.872 807.38 128.57 811.248 129.257 814.175 129.154 817.11 129.232 820.035 128.788 822.814 127.843 819.996 126.993 817.065 126.576 814.122 126.606Z" fill="#198AB3"/><path d="M825.698 157.563C829.819 157.563 833.159 154.222 833.159 150.102 833.159 145.981 829.819 142.64 825.698 142.64 821.577 142.64 818.237 145.981 818.237 150.102 818.237 154.222 821.577 157.563 825.698 157.563Z" fill="#FFFFFF"/><path d="M825.52 143.773C829.014 143.771 831.848 146.602 831.85 150.096 831.852 153.591 829.021 156.425 825.527 156.427 822.032 156.428 819.198 153.597 819.196 150.103 819.195 147.544 820.735 145.237 823.098 144.256 823.866 143.937 824.689 143.773 825.52 143.773ZM825.52 141.508C820.769 141.501 816.912 145.348 816.905 150.099 816.899 154.851 820.745 158.708 825.497 158.714 830.248 158.721 834.105 154.874 834.111 150.123 834.115 147.837 833.208 145.644 831.592 144.028 829.982 142.416 827.798 141.51 825.52 141.508Z" fill="#003067"/><path d="M821.542 152.101C821.546 152.661 822.001 153.113 822.561 153.115L822.568 153.115 825.985 153.085 825.985 150.937 823.781 150.937 823.781 146.98 822.527 146.988C822.113 146.99 821.742 147.241 821.587 147.625 821.536 147.749 821.51 147.882 821.511 148.016L821.521 149.525 820.167 149.525 820.167 150.537 821.528 150.537Z" fill="#76BC2D"/><path d="M829.735 147.963C829.731 147.402 829.276 146.95 828.716 146.948L828.709 146.948 825.36 146.976 825.36 149.36 827.564 149.36 827.564 153.084 828.75 153.076C829.313 153.073 829.767 152.614 829.764 152.051 829.764 152.051 829.764 152.051 829.764 152.05L829.754 150.54 831.111 150.54 831.111 149.525 829.747 149.525Z" fill="#76BC2D"/></g></g></g><text font-family="Verdana,Verdana_MSFontService,sans-serif" font-weight="400" font-size="18.6667" transform="translate(98.5105 183)">SQL Data</text><text font-family="Verdana,Verdana_MSFontService,sans-serif" font-weight="400" font-size="18.6667" transform="translate(85.5105 205)">Warehouses</text><text font-family="Verdana,Verdana_MSFontService,sans-serif" font-weight="400" font-size="18.6667" transform="translate(297.809 183)">Azure Synapse</text><text font-family="Verdana,Verdana_MSFontService,sans-serif" font-weight="400" font-size="18.6667" transform="translate(325.642 205)">Analytics</text><text font-family="Verdana,Verdana_MSFontService,sans-serif" font-weight="400" font-size="18.6667" transform="translate(543.441 183)">Azure SQL</text><text font-family="Verdana,Verdana_MSFontService,sans-serif" font-weight="400" font-size="18.6667" transform="translate(716.073 183)">SSIS Lift And Shift IR</text><g clip-path="url(#clip12)"><g clip-path="url(#clip13)"><g clip-path="url(#clip14)"><path d="M21.7416 18.0889C19.9018 18.0889 18.4098 16.5987 18.4075 14.7589 16.161 14.7839 14.3601 16.6253 14.385 18.8718 14.41 21.1183 16.2514 22.9193 18.4979 22.8943 20.7445 22.8693 22.5454 21.0279 22.5204 18.7814 22.5175 18.5232 22.4901 18.2658 22.4384 18.0128 22.2094 18.0624 21.9759 18.0879 21.7416 18.0889Z" fill="url(#fill15)" transform="matrix(1.02703 0 0 1 124 255)"/><path d="M26.4386 23.0859C26.2896 21.6191 25.8299 20.2008 25.0901 18.9255 24.8754 22.4094 21.9905 25.1269 18.5 25.1333 18.3417 25.1333 18.1937 25.0983 18.0396 25.086 14.5452 25.04 11.1975 23.6742 8.66828 21.2627 6.4937 19.1735 4.88107 16.5697 3.97956 13.6921 2.78958 14.7735 1.66266 15.9224 0.604333 17.1331-0.154015 17.8329-0.201422 19.015 0.498447 19.7734 0.532313 19.8101 0.567637 19.8454 0.604333 19.8793 2.87924 22.6072 5.55937 24.9698 8.55111 26.8846 11.5599 28.9466 15.1218 30.0507 18.7693 30.0522 21.1398 30.0656 23.4789 29.5094 25.5896 28.4304 25.7232 28.3687 25.8383 28.2865 25.9699 28.2248 26.4378 26.5547 26.5967 24.8132 26.4386 23.0859Z" fill="url(#fill16)" transform="matrix(1.02703 0 0 1 124 255)"/><path d="M12.6581 21.5833C11.2548 18.9989 11.7522 15.7952 13.8729 13.7578 15.5392 11.5149 17.875 9.85936 20.5432 9.03006 21.9979 8.58586 23.5077 8.34784 25.0284 8.32294 23.8049 7.79273 22.5239 7.40644 21.2113 7.17183 17.6167 6.56669 13.923 7.17641 10.7136 8.90467 8.91787 9.83605 7.22331 10.9506 5.65689 12.2306 6.39628 15.0527 7.88827 17.6211 9.97356 19.6614 10.7779 20.4199 11.6809 21.0664 12.6581 21.5833Z" fill="url(#fill17)" transform="matrix(1.02703 0 0 1 124 255)"/><path d="M36.445 17.2235C34.4362 14.8174 32.1164 12.689 29.5466 10.8944 26.8593 10.1606 24.0226 10.1749 21.3428 10.9356 20.5376 11.1806 19.7609 11.5114 19.0262 11.9222 20.1743 12.0031 21.2812 12.3829 22.237 13.024 22.3226 13.0485 22.4043 13.0852 22.4796 13.1329 25.6775 15.2803 27.832 18.6669 28.4222 22.4734 28.6105 23.9498 28.5876 25.4455 28.3543 26.9154 31.4002 24.9796 34.1269 22.5824 36.4368 19.8094 37.153 19.1425 37.193 18.0214 36.5261 17.3052 36.5 17.2771 36.4729 17.2498 36.445 17.2235Z" fill="url(#fill18)" transform="matrix(1.02703 0 0 1 124 255)"/></g></g></g><g><g><g><path d="M375.747 258.41C373.568 258.41 371.798 257.771 371.798 256.971L371.798 264.577C371.798 265.36 373.535 265.995 375.689 266.016L375.747 266.016C377.926 266.016 379.696 265.376 379.696 264.577L379.696 256.979C379.689 257.771 377.924 258.41 375.747 258.41Z" fill="url(#fill19)"/><path d="M379.689 256.979C379.689 257.771 377.924 258.418 375.741 258.418 373.558 258.418 371.798 257.779 371.798 256.979 371.798 256.18 373.564 255.551 375.747 255.551 377.93 255.551 379.696 256.192 379.696 256.99" fill="#E8E8E8"/><path d="M378.769 256.864C378.769 257.368 377.414 257.773 375.743 257.773 374.072 257.773 372.719 257.362 372.719 256.864 372.719 256.367 374.078 255.956 375.747 255.956 377.416 255.956 378.771 256.367 378.771 256.864" fill="#50E6FF"/><path d="M375.747 257.074C374.934 257.056 374.124 257.173 373.35 257.419 374.122 257.676 374.933 257.797 375.747 257.777 376.559 257.795 377.368 257.674 378.14 257.419 377.367 257.172 376.558 257.056 375.747 257.074Z" fill="#198AB3"/><path d="M385.223 275.461C385.117 271.929 382.467 268.993 378.964 268.528 378.749 263.554 374.574 259.679 369.599 259.835 365.638 259.762 362.065 262.2 360.686 265.913 356.461 266.422 353.242 269.941 353.111 274.195 353.296 279.008 357.342 282.763 362.156 282.59 362.423 282.59 362.688 282.575 362.951 282.555L377.591 282.555C377.721 282.552 377.85 282.533 377.975 282.497 381.885 282.471 385.081 279.369 385.223 275.461Z" fill="url(#fill20)"/><path d="M384.526 261.53C383.815 260.669 382.828 260.079 381.733 259.859L381.733 262.09C382.158 262.234 382.536 262.493 382.824 262.838 384.639 265.218 381.34 273.021 371.843 280.322 362.347 287.624 353.985 288.793 352.17 286.411 351.28 285.243 351.643 282.76 353.35 279.679 352.869 278.979 352.484 278.219 352.203 277.418 349.551 281.613 348.739 285.435 350.466 287.71 353.588 291.803 363.742 289.258 373.149 282.024 382.555 274.791 387.644 265.623 384.526 261.53Z" fill="#0072C6"/><path d="M366.398 278.407C362.661 278.407 359.629 277.309 359.629 275.956L359.629 288.997C359.629 290.339 362.61 291.431 366.306 291.449L366.398 291.449C370.137 291.449 373.167 290.351 373.167 288.997L373.167 275.967C373.167 277.309 370.137 278.407 366.398 278.407Z" fill="url(#fill21)"/><path d="M373.167 275.967C373.167 277.319 370.137 278.417 366.398 278.417 362.659 278.417 359.629 277.309 359.629 275.967 359.629 274.624 362.661 273.5 366.398 273.5 370.135 273.5 373.167 274.598 373.167 275.952" fill="#E8E8E8"/><path d="M371.586 275.761C371.586 276.622 369.264 277.321 366.398 277.321 363.533 277.321 361.21 276.618 361.21 275.761 361.21 274.904 363.533 274.199 366.398 274.199 369.264 274.199 371.586 274.898 371.586 275.757" fill="#50E6FF"/><path d="M366.398 276.117C365.004 276.083 363.615 276.284 362.287 276.709 363.612 277.149 365.003 277.358 366.398 277.325 367.794 277.358 369.185 277.149 370.509 276.709 369.182 276.284 367.792 276.083 366.398 276.117Z" fill="#198AB3"/><path d="M370.513 285.011 370.513 281.443 369.531 281.443 369.531 285.805 372.129 285.805 372.129 285.011ZM362.978 283.25C362.781 283.168 362.599 283.058 362.435 282.923 362.346 282.833 362.297 282.71 362.302 282.583 362.299 282.456 362.361 282.336 362.466 282.263 362.598 282.176 362.754 282.134 362.912 282.142 363.271 282.136 363.622 282.243 363.917 282.446L363.917 281.537C363.578 281.416 363.219 281.358 362.859 281.369 362.446 281.349 362.039 281.474 361.71 281.722 361.423 281.949 361.261 282.298 361.274 282.664 361.312 283.254 361.708 283.76 362.271 283.94 362.503 284.038 362.722 284.165 362.922 284.318 363.023 284.404 363.08 284.53 363.081 284.662 363.084 284.791 363.022 284.913 362.914 284.984 362.775 285.074 362.611 285.117 362.445 285.108 362.02 285.104 361.61 284.945 361.292 284.662L361.292 285.636C361.642 285.809 362.03 285.893 362.421 285.879 362.861 285.906 363.298 285.786 363.664 285.539 363.964 285.313 364.133 284.953 364.115 284.577 364.125 284.306 364.032 284.041 363.855 283.835 363.605 283.583 363.307 283.384 362.978 283.25ZM368.452 284.929C368.886 284.161 368.919 283.23 368.54 282.433 368.375 282.104 368.118 281.83 367.8 281.644 367.472 281.457 367.1 281.362 366.723 281.367 366.323 281.36 365.928 281.459 365.578 281.654 365.245 281.846 364.975 282.132 364.803 282.477 364.614 282.851 364.519 283.266 364.528 283.685 364.523 284.07 364.611 284.451 364.783 284.795 364.943 285.118 365.192 285.39 365.5 285.578 365.816 285.771 366.178 285.877 366.548 285.885L367.453 286.9 368.733 286.9 367.469 285.729C367.882 285.586 368.232 285.303 368.458 284.929ZM367.469 284.662C367.275 284.907 366.976 285.044 366.663 285.032 366.351 285.042 366.052 284.899 365.864 284.649 365.453 284.026 365.453 283.217 365.864 282.594 366.059 282.34 366.366 282.196 366.686 282.207 366.997 282.194 367.294 282.339 367.475 282.592 367.683 282.901 367.784 283.269 367.763 283.64 367.79 284.004 367.688 284.365 367.475 284.662Z" fill="url(#fill22)"/></g></g></g><g><g><g><path d="M592.5 265.566C585.223 265.566 579.324 263.51 579.324 260.797L579.324 286.203C579.324 288.814 585.121 290.931 592.315 290.972L592.5 290.972C599.777 290.972 605.676 288.917 605.676 286.203L605.676 260.797C605.676 263.428 599.777 265.566 592.5 265.566Z" fill="url(#fill23)"/><path d="M605.676 260.797C605.676 263.428 599.777 265.566 592.5 265.566 585.223 265.566 579.324 263.51 579.324 260.797 579.324 258.083 585.223 256.028 592.5 256.028 599.777 256.028 605.676 258.083 605.676 260.797" fill="#E8E8E8"/><path d="M602.593 260.406C602.593 262.092 598.071 263.448 592.5 263.448 586.929 263.448 582.387 262.092 582.387 260.427 582.387 258.762 586.909 257.384 592.5 257.384 598.091 257.384 602.593 258.741 602.593 260.406" fill="#50E6FF"/><path d="M592.5 261.167C589.781 261.099 587.07 261.495 584.483 262.338 587.072 263.165 589.784 263.54 592.5 263.448 595.214 263.514 597.919 263.111 600.496 262.256 597.909 261.455 595.207 261.086 592.5 261.167Z" fill="#198AB3"/><path d="M598.983 273.482C598.983 273.652 598.928 273.975 598.872 274.349 598.794 274.777 598.744 275.21 598.72 275.644 598.72 275.893 598.778 276.273 598.819 276.606 598.856 276.888 598.889 277.153 598.899 277.336 598.899 277.966 598.715 278.583 598.369 279.11 598.346 279.159 598.323 279.206 598.299 279.254 598.367 279.338 598.436 279.42 598.504 279.5 599.445 277.962 600.19 276.312 600.722 274.589L600.722 274.589C601.314 272.637 601.384 271.231 600.911 270.633 599.555 268.993 597.366 268.297 595.312 268.854 596.018 269.212 596.661 269.683 597.215 270.248 598.224 271.038 598.863 272.207 598.983 273.482ZM598.338 273.652C597.786 273.514 597.203 273.578 596.693 273.831 596.077 274.211 596.27 274.964 596.586 275.909 596.785 276.511 597.025 277.098 597.304 277.667L597.493 278.008 597.493 278.008C597.594 278.187 597.67 278.324 597.719 278.419 597.768 278.513 597.828 278.598 597.886 278.684 598.128 278.283 598.26 277.825 598.268 277.356 598.268 277.196 598.227 276.945 598.192 276.672 598.145 276.306 598.097 275.928 598.089 275.644 598.109 275.171 598.162 274.7 598.247 274.234 598.284 274.036 598.317 273.815 598.338 273.652ZM597.701 274.487C597.601 274.595 597.469 274.667 597.324 274.692L597.252 274.692C597.034 274.692 596.835 274.565 596.743 274.367L596.743 274.351C596.72 274.191 596.985 274.067 597.261 274.028 597.386 274.006 597.514 274.006 597.639 274.028 597.758 274.057 597.832 274.115 597.844 274.189 597.838 274.303 597.786 274.411 597.701 274.487ZM587.881 276.337C587.898 276.185 587.912 276.053 587.912 275.985 587.912 275.868 587.912 275.747 587.9 275.621 587.861 274.966 587.882 274.308 587.961 273.656 588.043 272.871 588.209 272.097 588.459 271.348 588.713 270.652 589.118 270.021 589.643 269.498 588.731 269.196 587.78 269.028 586.82 268.998 586.011 268.963 585.21 269.179 584.526 269.615 583.456 270.551 582.954 271.979 583.203 273.379 583.398 274.946 583.738 276.491 584.218 277.995 584.948 280.359 585.745 281.796 586.463 282.031L586.463 282.031C586.784 282.137 587.104 281.994 587.443 281.593 588.029 280.89 588.576 280.285 588.901 279.948 587.955 279.003 587.568 277.633 587.881 276.333ZM588.442 277.159C588.423 277.544 588.463 277.929 588.56 278.302 588.676 278.643 588.864 278.955 589.11 279.219 589.316 279.439 589.565 279.613 589.842 279.73 590.103 279.839 590.382 279.896 590.664 279.899 590.797 279.48 590.953 279.068 591.131 278.666 591.306 278.272 591.456 277.867 591.581 277.455 591.668 276.695 591.687 275.93 591.639 275.167 591.608 274.961 591.571 274.756 591.522 274.536 591.501 274.326 591.411 274.13 591.267 273.977 591.249 273.959 591.231 273.943 591.211 273.928 591.035 273.805 590.829 273.734 590.615 273.722 590.448 273.705 590.28 273.705 590.114 273.722 589.766 273.768 589.427 273.869 589.11 274.02 588.907 274.121 588.715 274.243 588.537 274.384 588.537 274.466 588.537 274.542 588.537 274.618 588.562 275.029 588.57 275.453 588.557 275.87L588.557 275.967C588.557 276.074 588.551 276.181 588.537 276.287 588.52 276.557 588.5 276.826 588.467 277.093L588.467 277.093ZM589.828 274.39C589.841 274.363 589.86 274.34 589.883 274.322 590.062 274.226 590.27 274.197 590.469 274.24 590.608 274.256 590.742 274.298 590.866 274.363 591.053 274.464 591.071 274.579 591.053 274.639L591.053 274.67C590.948 274.897 590.721 275.042 590.471 275.042L590.389 275.042C590.048 274.992 589.772 274.649 589.801 274.468 589.805 274.441 589.814 274.414 589.828 274.39ZM591.367 280.528C591.262 280.543 591.164 280.592 591.088 280.668 590.971 280.799 590.882 280.914 590.804 281.009 590.453 281.453 590.305 281.593 589.269 281.802 589.079 281.823 588.897 281.888 588.738 281.994 588.884 282.115 589.057 282.199 589.242 282.24 589.726 282.395 590.246 282.395 590.73 282.24 590.999 282.153 591.25 282.02 591.472 281.846 591.673 281.681 591.817 281.457 591.883 281.206 591.901 280.997 591.826 280.791 591.678 280.643 591.597 280.558 591.48 280.515 591.363 280.528ZM601.029 280.528C600.254 280.783 599.414 280.764 598.652 280.472 598.555 280.451 598.454 280.455 598.358 280.485 598.213 280.532 598.091 280.633 598.017 280.766 597.956 280.978 597.931 281.198 597.943 281.418 598.717 281.586 599.524 281.515 600.256 281.212 600.637 281.053 600.978 280.812 601.255 280.505 601.175 280.505 601.095 280.511 601.016 280.524ZM595.994 276.108C595.709 275.255 595.281 273.967 596.369 273.297 596.939 272.986 597.6 272.88 598.239 272.996 597.922 272.153 597.437 271.384 596.813 270.735 596.747 270.665 596.681 270.6 596.607 270.53 596.533 270.46 596.519 270.448 596.473 270.408L596.457 270.392 596.317 270.269 596.223 270.193 596.167 270.145C595.178 269.374 593.96 268.954 592.706 268.951 591.962 268.912 591.225 269.101 590.592 269.494 589.885 270.01 589.347 270.726 589.049 271.549 588.834 272.202 588.687 272.875 588.609 273.558 589.228 273.19 589.946 273.023 590.664 273.081 591.612 273.147 592.327 273.969 592.261 274.917 592.26 274.931 592.259 274.945 592.257 274.959 592.315 275.833 592.292 276.711 592.19 277.58 592.06 278.027 591.899 278.463 591.709 278.888 591.567 279.231 591.413 279.605 591.318 279.893 591.617 279.862 591.914 279.97 592.124 280.187 592.409 280.468 592.552 280.863 592.512 281.262L592.512 281.262C592.502 281.426 592.496 281.593 592.477 281.759 592.32 283.454 592.485 285.164 592.965 286.797 593.09 286.992 593.269 287.146 593.481 287.241 593.678 287.364 593.902 287.435 594.134 287.447 594.88 287.5 595.616 287.251 596.175 286.754 596.537 286.389 596.75 285.903 596.776 285.389 596.938 284.452 597.248 281.868 597.289 281.332L597.289 281.332C597.252 281.011 597.319 280.687 597.483 280.409 597.615 280.193 597.811 280.022 598.044 279.922 597.114 278.799 596.418 277.503 595.994 276.108Z" fill="#FFFFFF"/><path d="M608.84 281.463C610.481 283.406 609.64 286.816 606.961 289.078 604.281 291.339 600.779 291.597 599.138 289.654 597.497 287.71 598.339 284.301 601.018 282.039 603.697 279.777 607.199 279.519 608.84 281.463Z" fill="#76BC2D"/><path d="M602.457 287.562C601.432 286.881 601.154 285.497 601.836 284.473 602.019 284.196 602.263 283.965 602.548 283.794 604.93 282.088 605.076 284.544 603.164 284.863 603.164 285.747 605.647 285.642 606.716 283.667 607.917 281.445 604.389 280.037 601.333 283.406 599.378 285.562 599.329 288.512 601.057 289.161 603.818 289.986 606.725 288.417 607.55 285.657 607.739 285.024 607.806 284.361 607.748 283.704 606.108 287.554 603.762 288.111 602.457 287.562Z" fill="#FFFFFF"/></g></g></g><g clip-path="url(#clip24)"><g clip-path="url(#clip25)"><g clip-path="url(#clip26)"><path d="M24.3768 30.7902C17.4188 30.7902 11.7783 29.5671 11.7783 28.0583L11.7783 34.4182C11.7783 35.927 17.4188 37.1501 24.3768 37.1501 31.3349 37.1501 36.9753 35.927 36.9753 34.4182L36.9753 28.0583C36.9753 29.5671 31.3349 30.7902 24.3768 30.7902ZM34.9773 32.0852C34.0256 32.4141 33.0389 32.6731 32.0482 32.856 30.8662 33.0718 29.6576 33.1828 28.453 33.1828L28.453 33.1828C28.1632 33.1828 27.9268 32.9485 27.9268 32.6587 27.9268 32.3688 28.1611 32.1345 28.453 32.1345 29.5938 32.1345 30.7388 32.0297 31.8591 31.8241 32.7984 31.6514 33.7317 31.4068 34.6341 31.0944 34.9095 30.9998 35.2076 31.1437 35.3042 31.4192 35.3987 31.6926 35.2548 31.9927 34.9794 32.0872ZM24.3768 22.6111C17.4188 22.6111 11.7783 21.3881 11.7783 19.8793L11.7783 26.5763C11.7783 28.0851 17.4188 29.3061 24.3768 29.3061 31.3349 29.3061 36.9753 28.083 36.9753 26.5742L36.9753 19.8772C36.9753 21.386 31.3349 22.6091 24.3768 22.6091ZM34.9773 24.1281C34.0236 24.457 33.0389 24.716 32.0482 24.8989 30.8662 25.1148 29.6555 25.2258 28.453 25.2258L28.453 25.2258C28.1632 25.2258 27.9268 24.9914 27.9268 24.7016 27.9268 24.4118 28.1611 24.1774 28.453 24.1774 29.5938 24.1774 30.7388 24.0726 31.8591 23.8671 32.7984 23.6944 33.7317 23.4498 34.6341 23.1373 34.9095 23.0428 35.2076 23.1867 35.3042 23.4621 35.4008 23.7376 35.2548 24.0356 34.9794 24.1302ZM24.3768 9.5645C17.4188 9.5645 11.7783 10.7732 11.7783 12.7732L11.7783 18.3993C11.7783 19.9081 17.4188 21.1291 24.3768 21.1291 31.3349 21.1291 36.9753 19.906 36.9753 18.3972L36.9753 12.9767C36.9753 10.7711 31.3349 9.56244 24.3768 9.56244ZM34.9773 16.3992C34.0236 16.7281 33.0389 16.9871 32.0482 17.1701 30.8662 17.3859 29.6576 17.4969 28.453 17.4969L28.453 17.4969C28.1632 17.4969 27.9268 17.2626 27.9268 16.9727 27.9268 16.6829 28.1611 16.4486 28.453 16.4486 29.5938 16.4486 30.7388 16.3437 31.8591 16.1382 32.7964 15.9655 33.7317 15.7209 34.6341 15.4084 34.9095 15.3139 35.2076 15.4578 35.3042 15.7332 35.3987 16.0066 35.2548 16.3067 34.9794 16.4013ZM24.3768 14.5389C18.1094 14.5389 13.0302 13.3981 13.0302 12.7218 13.0302 11.8914 18.1094 10.6087 24.3768 10.6087 30.6442 10.6087 35.7235 11.9428 35.7235 12.7218 35.7235 13.4289 30.6442 14.5389 24.3768 14.5389Z" fill="url(#fill27)" transform="matrix(1.02703 0 0 1 798 255)"/><path d="M11.7783 12.7198 11.7783 12.6232C11.7783 10.7588 16.687 9.583 22.9955 9.43295 22.2699 7.80494 20.7508 6.59833 18.8926 6.35167 18.7343 2.7195 15.688-0.108944 12.0558 0.00411111 9.16572-0.0472778 6.55722 1.73078 5.55 4.44 2.46461 4.81206 0.115111 7.38561 0.0246667 10.4916 0.162389 14.0024 3.11417 16.7384 6.62506 16.613 6.82033 16.613 7.01972 16.6048 7.20472 16.5883L11.7763 16.5883 11.7763 12.7198Z" fill="url(#fill28)" transform="matrix(1.02703 0 0 1 798 255)"/></g></g></g><text font-family="Verdana,Verdana_MSFontService,sans-serif" font-weight="400" font-size="18.6667" transform="translate(75.6771 316)">Azure Purview</text><text font-family="Verdana,Verdana_MSFontService,sans-serif" font-weight="400" font-size="18.6667" transform="translate(100.59 338)">Accounts</text><text font-family="Verdana,Verdana_MSFontService,sans-serif" font-weight="400" font-size="18.6667" transform="translate(292.142 316)">Azure SQL Edge</text><text font-family="Verdana,Verdana_MSFontService,sans-serif" font-weight="400" font-size="18.6667" transform="translate(518.521 316)">Azure Database</text><text font-family="Verdana,Verdana_MSFontService,sans-serif" font-weight="400" font-size="18.6667" transform="translate(503.941 338)">PostgreSQL Server</text><text font-family="Verdana,Verdana_MSFontService,sans-serif" font-weight="400" font-size="18.6667" transform="translate(563.774 360)">Group</text><text font-family="Verdana,Verdana_MSFontService,sans-serif" font-weight="400" font-size="18.6667" transform="translate(740.323 316)">Oracle Database</text><g><g><g><path d="M130.236 399.117C130.032 399.118 129.866 398.954 129.865 398.75 129.865 398.748 129.865 398.747 129.865 398.746L129.865 398.746C129.861 396.405 127.964 394.508 125.623 394.504 125.419 394.504 125.253 394.339 125.252 394.135L125.252 394.135C125.252 393.93 125.418 393.763 125.623 393.763 127.965 393.76 129.862 391.862 129.865 389.52 129.863 389.316 130.028 389.15 130.232 389.148 130.233 389.148 130.235 389.148 130.236 389.148L130.236 389.148C130.44 389.147 130.607 389.312 130.608 389.516 130.608 389.517 130.608 389.519 130.608 389.52L130.608 389.52C130.611 391.861 132.508 393.758 134.849 393.761 135.053 393.76 135.219 393.924 135.221 394.129 135.221 394.13 135.221 394.131 135.221 394.133L135.221 394.133C135.222 394.337 135.057 394.503 134.853 394.504 134.852 394.504 134.85 394.504 134.849 394.504L134.849 394.504C132.508 394.507 130.61 396.404 130.608 398.746 130.607 398.95 130.441 399.116 130.236 399.117Z" fill="#50E6FF"/><path d="M156.957 424.852C156.792 424.852 156.659 424.718 156.659 424.554L156.659 424.554C156.657 422.681 155.139 421.164 153.266 421.161 153.103 421.161 152.97 421.029 152.969 420.866L152.969 420.866C152.969 420.701 153.102 420.568 153.266 420.568L153.266 420.568C155.14 420.567 156.658 419.049 156.659 417.176 156.659 417.011 156.792 416.878 156.957 416.878L156.957 416.878C157.121 416.878 157.254 417.011 157.254 417.176L157.254 417.176C157.255 419.049 158.774 420.567 160.647 420.568 160.811 420.568 160.944 420.701 160.944 420.866 160.944 421.03 160.811 421.163 160.647 421.163L160.647 421.163C158.774 421.166 157.257 422.683 157.254 424.556 157.253 424.72 157.12 424.852 156.957 424.852Z" fill="#50E6FF"/><path d="M155.601 403.897C157.264 410.856 152.97 417.846 146.01 419.508 139.051 421.171 132.061 416.877 130.399 409.918 128.736 402.958 133.03 395.969 139.989 394.306 146.949 392.643 153.938 396.937 155.601 403.897Z" fill="url(#fill29)"/><g clip-path="url(#clip30)"><path d="M136.052 415.687C137.961 415.737 139.55 414.23 139.6 412.321 139.65 410.412 138.143 408.824 136.233 408.774 136.177 408.772 136.12 408.772 136.063 408.773 136.073 408.675 136.078 408.576 136.078 408.478 136.06 406.557 134.492 405.012 132.571 405.024L129.979 405.024C129.465 408.902 130.699 412.808 133.346 415.687Z" fill="#F2F2F2"/><path d="M155.762 404.498C155.762 404.467 155.762 404.435 155.747 404.405 155.329 402.146 154.303 400.044 152.779 398.325 152.581 398.245 152.377 398.182 152.169 398.135 150.144 397.558 148.034 398.731 147.456 400.756 147.373 401.046 147.325 401.345 147.313 401.646 147.173 401.63 147.032 401.621 146.891 401.619 144.866 401.619 143.224 403.26 143.223 405.285 143.223 406.838 144.201 408.222 145.664 408.742 146.028 408.884 146.416 408.956 146.806 408.953L151.092 408.953C152.813 407.65 154.379 406.156 155.762 404.498Z" fill="#F2F2F2"/></g><path d="M160.292 396.09C158.964 393.879 155.859 393.018 151.52 393.664 150.034 393.875 148.565 394.194 147.125 394.618 148.267 395.013 149.352 395.557 150.351 396.238 150.86 396.126 151.371 395.993 151.86 395.919 152.631 395.799 153.409 395.736 154.189 395.731 155.738 395.508 157.294 396.084 158.325 397.261L158.325 397.261C159.133 398.608 158.451 400.912 156.454 403.595 153.679 407.049 150.277 409.951 146.428 412.147 142.666 414.495 138.495 416.115 134.133 416.922 130.832 417.416 128.471 416.922 127.663 415.58 126.854 414.237 127.536 411.927 129.533 409.257 129.78 408.925 129.841 408.763 130.122 408.429 129.99 407.285 130.009 406.128 130.177 404.988 129.28 405.888 128.454 406.856 127.707 407.885 125.091 411.383 124.382 414.528 125.708 416.739 127.133 418.645 129.465 419.65 131.83 419.375 132.714 419.371 133.597 419.3 134.471 419.164 139.127 418.314 143.581 416.596 147.6 414.098 151.705 411.748 155.33 408.646 158.284 404.952 160.909 401.446 161.618 398.302 160.292 396.09Z" fill="#50E6FF"/></g></g></g><g><g><g><path d="M18.5 10.5656C11.2233 10.5656 5.32389 8.51 5.32389 5.79667L5.32389 31.2033C5.32389 33.8139 11.1206 35.9311 18.315 35.9722L18.5 35.9722C25.7767 35.9722 31.6761 33.9167 31.6761 31.2033L31.6761 5.79667C31.6761 8.44833 25.7767 10.5656 18.5 10.5656Z" fill="url(#fill31)" transform="matrix(1 0 0 1.02703 349 388)"/><path d="M31.6761 5.79667C31.6761 8.44833 25.7767 10.5656 18.5 10.5656 11.2233 10.5656 5.32389 8.51 5.32389 5.79667 5.32389 3.08333 11.2233 1.02778 18.5 1.02778 25.7767 1.02778 31.6761 3.08333 31.6761 5.79667" fill="#E8E8E8" transform="matrix(1 0 0 1.02703 349 388)"/><path d="M28.6133 5.40611C28.6133 7.09167 24.0706 8.44833 18.5 8.44833 12.9294 8.44833 8.38667 7.09167 8.38667 5.40611 8.38667 3.72056 12.9294 2.38444 18.5 2.38444 24.0706 2.38444 28.6133 3.74111 28.6133 5.40611" fill="#50E6FF" transform="matrix(1 0 0 1.02703 349 388)"/><path d="M18.5 6.16667C15.7873 6.09738 13.0827 6.49368 10.5039 7.33833 13.0852 8.1673 15.7905 8.54285 18.5 8.44833 21.215 8.52786 23.9224 8.12418 26.4961 7.25611 23.9099 6.45052 21.2074 6.08231 18.5 6.16667Z" fill="#198AB3" transform="matrix(1 0 0 1.02703 349 388)"/><path d="M25.9822 18.5 25.9822 21.8506 23.9267 21.8506C23.6958 21.845 23.4785 21.7401 23.3306 21.5628L23.3306 18.5 20.5556 18.5 20.5556 22.1589C20.5856 23.2029 21.4563 24.0248 22.5003 23.9948 22.5373 23.9937 22.5743 23.9916 22.6111 23.9883L25.6739 23.9883 26.2083 23.7211C26.2083 23.7211 25.9822 24.5639 25.6739 24.605L20.7817 24.605 20.7817 26.6606 26.2494 26.6606C27.6229 26.685 28.7561 25.5914 28.7805 24.2179 28.7815 24.1619 28.7806 24.1059 28.7778 24.05L28.7778 18.5Z" fill="#F2F2F2" transform="matrix(1 0 0 1.02703 349 388)"/><path d="M19.5894 18.5C19.5894 18.5 19.5894 18.5 19.5894 18.5L19.5894 17.4928C19.6933 16.7946 19.2754 16.1242 18.6028 15.91 18.27 15.8054 17.9238 15.75 17.575 15.7456 16.7627 15.7098 16.015 16.1864 15.7044 16.9378L14.1011 20.8433 12.0456 16.9378C11.7532 16.2181 11.0545 15.7469 10.2778 15.7456 9.92002 15.7434 9.56484 15.806 9.22944 15.9306 8.51 16.1567 8.34556 16.6294 8.34556 17.4311L8.34556 24.235 10.7506 24.235 10.7506 19.6511 12.0456 22.8783C12.3941 23.704 13.2049 24.2392 14.1011 24.235 15.0056 24.235 15.3756 23.7006 15.7456 22.8783L17.1228 19.7744 17.1228 24.1939 19.5483 24.1939 19.5483 18.5 19.5483 18.5Z" fill="#F2F2F2" transform="matrix(1 0 0 1.02703 349 388)"/></g></g></g><g><g><g><path d="M18.5 10.5656C11.2233 10.5656 5.32389 8.51 5.32389 5.79667L5.32389 31.2033C5.32389 33.8139 11.1206 35.9311 18.315 35.9722L18.5 35.9722C25.7767 35.9722 31.6761 33.9167 31.6761 31.2033L31.6761 5.79667C31.6761 8.44833 25.7767 10.5656 18.5 10.5656Z" fill="url(#fill32)" transform="matrix(1 0 0 1.02703 574 388)"/><path d="M31.6761 5.79667C31.6761 8.44833 25.7767 10.5656 18.5 10.5656 11.2233 10.5656 5.32389 8.51 5.32389 5.79667 5.32389 3.08333 11.2233 1.02778 18.5 1.02778 25.7767 1.02778 31.6761 3.08333 31.6761 5.79667" fill="#E8E8E8" transform="matrix(1 0 0 1.02703 574 388)"/><path d="M28.6133 5.40611C28.6133 7.09167 24.0706 8.44833 18.5 8.44833 12.9294 8.44833 8.38667 7.09167 8.38667 5.40611 8.38667 3.72056 12.9294 2.38444 18.5 2.38444 24.0706 2.38444 28.6133 3.74111 28.6133 5.40611" fill="#50E6FF" transform="matrix(1 0 0 1.02703 574 388)"/><path d="M18.5 6.16667C15.7873 6.09738 13.0827 6.49368 10.5039 7.33833 13.0852 8.1673 15.7905 8.54285 18.5 8.44833 21.215 8.52786 23.9224 8.12418 26.4961 7.25611 23.9099 6.45052 21.2074 6.08231 18.5 6.16667Z" fill="#198AB3" transform="matrix(1 0 0 1.02703 574 388)"/><path d="M29.2917 12.9911C28.6133 12.9911 29.415 13.505 27.01 13.6078 24.605 13.7106 23.7622 16.1772 22.2 18.2533 20.5406 19.9023 18.3618 20.9263 16.0333 21.1517 14.4681 21.6573 13.1111 22.6607 12.1689 24.0089 11.8954 24.5898 11.3458 24.9924 10.7094 25.0778 10.1544 25.0778 8.94167 25.2422 8.94167 25.2422 8.43831 25.3517 7.94878 25.5172 7.48222 25.7356 7.64667 26.4139 9.00333 26.1261 9.00333 26.1261 8.66896 26.4716 8.31186 26.7944 7.93444 27.0922 8.60789 27.2497 9.3042 27.2845 9.99 27.195 10.8739 27.195 11.5522 26.3522 13.1761 25.4683 14.8 24.5844 18.5411 25.4683 19.1372 25.4683 19.7333 25.4683 20.6172 23.9061 20.8228 23.4128 20.9872 24.5228 19.1372 27.5239 19.1372 27.5239 20.5406 27.4324 21.8126 26.6662 22.5494 25.4683 22.7139 25.2628 23.2278 24.1939 23.2894 24.2967 23.3511 24.3994 23.6183 24.6872 23.7211 24.6461 23.9101 24.4784 24.0823 24.2925 24.235 24.0911 25.3181 22.5476 26.1121 20.8204 26.5783 18.9933 26.7222 18.5 26.7222 16.7117 27.9556 15.9717 29.1889 15.2317 29.3533 14.5533 29.3533 14.4917L29.3533 14.3889C29.0491 14.1939 28.7783 13.9509 28.5517 13.6694 28.5113 13.5995 28.5113 13.5133 28.5517 13.4433 28.7585 13.8289 29.1156 14.1116 29.5383 14.2244L29.5383 14.2244C29.5383 14.2244 29.97 12.9911 29.2917 12.9911ZM26.7222 15.17 26.5989 15.17C26.379 15.2112 26.1524 15.1508 25.9822 15.0056 26.1502 14.5751 26.5944 14.3188 27.0511 14.3889 27.1661 14.6953 27.0218 15.0381 26.7222 15.17ZM27.8733 15.17 27.8733 15.17C28.0513 14.7471 28.279 14.3468 28.5517 13.9778L28.5517 13.9778C28.264 14.3737 28.0226 14.8013 27.8322 15.2522ZM28.6133 14.1217 28.6133 14.1217 28.6133 14.1217C28.5087 14.4615 28.4533 14.8145 28.4489 15.17L28.4489 15.17C28.4195 14.9105 28.4195 14.6484 28.4489 14.3889 28.2994 14.638 28.1885 14.9083 28.12 15.1906L28.12 15.1906C28.2038 14.8349 28.3575 14.4995 28.5722 14.2039Z" fill="#F2F2F2" transform="matrix(1 0 0 1.02703 574 388)"/><path d="M25.0983 23.68C25.0983 23.68 24.0911 24.6256 24.05 24.9544 24.0089 25.2833 25.16 25.7972 25.8794 25.6122 25.5762 24.9863 25.3153 24.3408 25.0983 23.68Z" fill="#F2F2F2" transform="matrix(1 0 0 1.02703 574 388)"/></g></g></g><g><g><g><path d="M833.657 390.491C834.31 390.491 834.839 391.02 834.839 391.673L834.839 413.101C834.839 413.754 834.31 414.283 833.657 414.283L800.322 414.283C799.669 414.283 799.14 413.754 799.14 413.101L799.14 391.673C799.14 391.02 799.669 390.491 800.322 390.491Z" fill="url(#fill33)"/><path d="M824.157 421.503C820.631 420.954 820.483 418.4 820.504 414.304L813.496 414.304C813.496 418.4 813.369 420.954 809.843 421.503 808.811 421.671 808.057 422.569 808.07 423.614L825.93 423.614C825.943 422.569 825.189 421.671 824.157 421.503Z" fill="url(#fill34)"/><path d="M825.592 404.657 825.592 397.31 823.481 397.31 823.481 406.282 828.822 406.282 828.822 404.657ZM810.097 401.026C809.7 400.864 809.329 400.644 808.999 400.371 808.81 400.181 808.711 399.921 808.724 399.653 808.717 399.392 808.844 399.144 809.062 398.999 809.331 398.824 809.65 398.742 809.97 398.767 810.721 398.739 811.461 398.954 812.081 399.379L812.081 397.521C811.406 397.273 810.69 397.151 809.97 397.162 809.113 397.121 808.268 397.382 807.584 397.901 806.997 398.371 806.668 399.092 806.698 399.843 806.737 401.009 807.468 402.039 808.556 402.461 809.035 402.655 809.483 402.918 809.886 403.242 810.102 403.408 810.227 403.666 810.223 403.939 810.223 404.205 810.098 404.455 809.886 404.614 809.623 404.791 809.315 404.887 808.999 404.889 808.123 404.88 807.282 404.549 806.634 403.96L806.634 406.071C807.354 406.432 808.152 406.607 808.957 406.578 809.875 406.588 810.772 406.299 811.511 405.754 812.127 405.285 812.474 404.544 812.44 403.77 812.466 403.211 812.268 402.664 811.891 402.25 811.383 401.724 810.772 401.307 810.097 401.026ZM821.37 404.488C821.866 403.66 822.115 402.708 822.088 401.743 822.099 400.916 821.911 400.097 821.539 399.358 821.201 398.68 820.672 398.115 820.019 397.732 819.376 397.365 818.649 397.168 817.908 397.162 817.089 397.152 816.281 397.356 815.564 397.753 814.874 398.144 814.315 398.732 813.96 399.442 813.537 400.205 813.312 401.061 813.306 401.933 813.298 402.722 813.471 403.502 813.812 404.213 814.155 404.876 814.673 405.431 815.311 405.818 815.949 406.207 816.676 406.425 817.422 406.451L819.28 408.562 821.898 408.562 819.343 406.113C820.191 405.83 820.909 405.253 821.37 404.488ZM819.259 403.939C818.865 404.443 818.252 404.726 817.612 404.699 816.968 404.728 816.351 404.436 815.966 403.918 815.517 403.308 815.293 402.562 815.332 401.807 815.296 401.051 815.52 400.306 815.966 399.696 816.377 399.188 817.001 398.899 817.654 398.914 818.293 398.885 818.904 399.178 819.28 399.696 819.699 400.317 819.906 401.058 819.871 401.807 819.955 402.558 819.768 403.314 819.343 403.939Z" fill="url(#fill35)"/></g></g></g><text font-family="Verdana,Verdana_MSFontService,sans-serif" font-weight="400" font-size="18.6667" transform="translate(59.1772 450)">Azure Cosmos DB</text><text font-family="Verdana,Verdana_MSFontService,sans-serif" font-weight="400" font-size="18.6667" transform="translate(293.642 450)">Azure Database</text><text font-family="Verdana,Verdana_MSFontService,sans-serif" font-weight="400" font-size="18.6667" transform="translate(300.976 472)">MySQL Server</text><text font-family="Verdana,Verdana_MSFontService,sans-serif" font-weight="400" font-size="18.6667" transform="translate(518.524 450)">Azure Database</text><text font-family="Verdana,Verdana_MSFontService,sans-serif" font-weight="400" font-size="18.6667" transform="translate(518.944 472)">MariaDB Server</text><text font-family="Verdana,Verdana_MSFontService,sans-serif" font-weight="400" font-size="18.6667" transform="translate(750.823 450)">Azure SQL VM</text><g><g><g><path d="M151.972 544.124 151.972 535.87C151.975 535.707 151.844 535.573 151.681 535.57 151.6 535.569 151.522 535.601 151.466 535.659L143.021 544.103 134.239 552.886 134.239 558.944 159.741 558.944C160.394 558.956 160.933 558.437 160.944 557.784 160.945 557.77 160.945 557.755 160.944 557.741L160.944 535.87C160.947 535.707 160.816 535.573 160.653 535.57 160.572 535.569 160.494 535.601 160.438 535.659Z" fill="#005BA1"/><path d="M134.028 529.558C129.067 529.558 125.056 528.101 125.056 526.222L125.056 538.192 125.056 538.192 125.056 557.741C125.044 558.394 125.563 558.933 126.216 558.944 126.23 558.945 126.245 558.945 126.259 558.944L143 558.944 143 526.222C143 528.101 138.989 529.558 134.028 529.558Z" fill="url(#fill36)"/><path d="M155.456 549.381C155.782 549.381 156.047 549.646 156.047 549.972L156.047 553.582C156.047 553.909 155.782 554.173 155.456 554.173L151.846 554.173C151.519 554.173 151.254 553.909 151.254 553.582L151.254 549.972C151.254 549.646 151.519 549.381 151.846 549.381Z" fill="#FFFFFF"/><path d="M147.138 549.381C147.464 549.381 147.729 549.646 147.729 549.972L147.729 553.582C147.729 553.909 147.464 554.173 147.138 554.173L143.528 554.173C143.201 554.173 142.937 553.909 142.937 553.582L142.937 549.972C142.937 549.646 143.201 549.381 143.528 549.381Z" fill="#FFFFFF"/><path d="M138.82 549.381C139.146 549.381 139.411 549.646 139.411 549.972L139.411 553.582C139.411 553.909 139.146 554.173 138.82 554.173L135.21 554.173C134.884 554.173 134.619 553.909 134.619 553.582L134.619 549.972C134.619 549.646 134.884 549.381 135.21 549.381Z" fill="#FFFFFF"/><path d="M143 526.222C143 528.017 138.989 529.473 134.028 529.473 129.067 529.473 125.056 528.101 125.056 526.222 125.056 524.343 129.067 523.056 134.028 523.056 138.989 523.056 143 524.512 143 526.222" fill="#EAEAEA"/><path d="M140.889 526.032C140.889 527.193 137.807 528.143 134.007 528.143 130.207 528.143 127.124 527.236 127.124 526.032 127.124 524.829 130.333 523.984 134.028 523.984 137.722 523.984 140.889 524.892 140.889 526.032" fill="#50E6FF"/><path d="M134.028 526.518C132.182 526.481 130.342 526.745 128.581 527.299 130.337 527.876 132.18 528.148 134.028 528.101 135.876 528.148 137.718 527.876 139.474 527.299 137.713 526.745 135.874 526.481 134.028 526.518Z" fill="#198AB3"/></g></g></g><g><g><g><path d="M15.9717 21.9533C15.9181 22.3802 15.537 22.6887 15.1083 22.6522L1.89111 22.6522C1.46242 22.6887 1.08139 22.3802 1.02778 21.9533L1.02778 2.46667C1.08139 2.03978 1.46242 1.73133 1.89111 1.76778L15.1083 1.76778C15.537 1.73133 15.9181 2.03978 15.9717 2.46667Z" fill="#949494" transform="matrix(1 0 0 1.02703 349 522)"/><path d="M3.22722 10.6889C3.22722 9.79204 3.95426 9.065 4.85111 9.065L12.3333 9.065C13.2302 9.065 13.9572 9.79204 13.9572 10.6889L13.9572 10.6889C13.9686 11.5857 13.2508 12.3219 12.354 12.3332 12.3471 12.3333 12.3402 12.3333 12.3333 12.3333L4.85111 12.3333C3.95426 12.3333 3.22722 11.6063 3.22722 10.7094Z" fill="#003067" transform="matrix(1 0 0 1.02703 349 522)"/><path d="M3.22722 5.87889C3.21587 4.98211 3.93365 4.24593 4.83043 4.23457 4.83732 4.23449 4.84422 4.23444 4.85111 4.23444L12.3333 4.23444C13.2302 4.23437 13.9573 4.96135 13.9574 5.8582 13.9574 5.8651 13.9573 5.87199 13.9572 5.87889L13.9572 5.87889C13.9572 6.77574 13.2302 7.50278 12.3333 7.50278L4.85111 7.50278C3.95426 7.50278 3.22722 6.77574 3.22722 5.87889Z" fill="#003067" transform="matrix(1 0 0 1.02703 349 522)"/><path d="M6.00222 5.87889C6.00222 6.48057 5.51446 6.96833 4.91278 6.96833 4.31109 6.96833 3.82333 6.48057 3.82333 5.87889 3.82333 5.2772 4.31109 4.78944 4.91278 4.78944 5.51446 4.78944 6.00222 5.27721 6.00222 5.87889Z" fill="#50E6FF" transform="matrix(1 0 0 1.02703 349 522)"/><path d="M6.00222 10.6889C6.00222 11.2906 5.51446 11.7783 4.91278 11.7783 4.31109 11.7783 3.82333 11.2906 3.82333 10.6889 3.82333 10.0872 4.31109 9.59944 4.91278 9.59944 5.51446 9.59944 6.00222 10.0872 6.00222 10.6889Z" fill="#50E6FF" transform="matrix(1 0 0 1.02703 349 522)"/><path d="M32.4572 21.8506C32.4138 22.2857 32.0297 22.6058 31.5939 22.57L18.3767 22.57C17.9408 22.6058 17.5567 22.2857 17.5133 21.8506L17.5133 2.38444C17.5567 1.9493 17.9408 1.6292 18.3767 1.665L31.5939 1.665C32.0297 1.6292 32.4138 1.9493 32.4572 2.38444Z" fill="#949494" transform="matrix(1 0 0 1.02703 349 522)"/><path d="M19.7128 10.6067C19.7128 9.70982 20.4398 8.98278 21.3367 8.98278L28.7778 8.98278C29.6746 8.98278 30.4017 9.70982 30.4017 10.6067L30.4017 10.6067C30.4584 11.5017 29.7789 12.2733 28.8838 12.3301 28.8485 12.3323 28.8131 12.3334 28.7778 12.3333L21.3367 12.3333C20.4398 12.3333 19.7128 11.6063 19.7128 10.7094Z" fill="#003067" transform="matrix(1 0 0 1.02703 349 522)"/><path d="M19.7128 5.77611C19.6901 4.87955 20.3985 4.13434 21.295 4.11163 21.3089 4.11128 21.3228 4.11111 21.3367 4.11111L28.7778 4.11111C29.67 4.1222 30.3906 4.84278 30.4017 5.735L30.4017 5.735C30.4244 6.63156 29.716 7.37677 28.8194 7.39948 28.8055 7.39983 28.7917 7.4 28.7778 7.4L21.3367 7.4C20.4398 7.4 19.7128 6.67296 19.7128 5.77611Z" fill="#003067" transform="matrix(1 0 0 1.02703 349 522)"/><path d="M22.4878 5.77611C22.4878 6.37779 22 6.86556 21.3983 6.86556 20.7966 6.86556 20.3089 6.37779 20.3089 5.77611 20.3089 5.17443 20.7967 4.68667 21.3983 4.68667 22 4.68667 22.4878 5.17443 22.4878 5.77611Z" fill="#50E6FF" transform="matrix(1 0 0 1.02703 349 522)"/><path d="M22.4878 10.6067C22.4878 11.2084 22 11.6961 21.3983 11.6961 20.7966 11.6961 20.3089 11.2084 20.3089 10.6067 20.3089 10.005 20.7967 9.51722 21.3983 9.51722 22 9.51722 22.4878 10.005 22.4878 10.6067Z" fill="#50E6FF" transform="matrix(1 0 0 1.02703 349 522)"/><path d="M18.5 34.6156C18.4566 35.0507 18.0725 35.3708 17.6367 35.335L4.39889 35.335C3.96305 35.3708 3.57894 35.0507 3.53556 34.6156L3.53556 15.1494C3.55691 14.7072 3.93272 14.366 4.37495 14.3874 4.38294 14.3878 4.39092 14.3883 4.39889 14.3889L17.6161 14.3889C18.0565 14.343 18.4507 14.6628 18.4965 15.1032 18.4981 15.1186 18.4993 15.134 18.5 15.1494Z" fill="url(#fill37)" transform="matrix(1 0 0 1.02703 349 522)"/><path d="M5.735 23.3717C5.735 22.4748 6.46204 21.7478 7.35889 21.7478L14.8 21.7478C15.6968 21.7478 16.4239 22.4748 16.4239 23.3717L16.4444 23.3717C16.4334 24.2639 15.7128 24.9845 14.8206 24.9956L7.35889 24.9956C6.46204 24.9956 5.735 24.2685 5.735 23.3717Z" fill="#003067" transform="matrix(1 0 0 1.02703 349 522)"/><path d="M5.735 18.5C5.735 17.6032 6.46204 16.8761 7.35889 16.8761L14.8 16.8761C15.6968 16.8648 16.433 17.5825 16.4443 18.4793 16.4444 18.4862 16.4444 18.4931 16.4444 18.5L16.4444 18.5C16.4334 19.3922 15.7128 20.1128 14.8206 20.1239L7.35889 20.1239C6.46204 20.1239 5.735 19.3968 5.735 18.5Z" fill="#003067" transform="matrix(1 0 0 1.02703 349 522)"/><path d="M8.51 18.5411C8.51 19.1428 8.02224 19.6306 7.42056 19.6306 6.81887 19.6306 6.33111 19.1428 6.33111 18.5411 6.33111 17.9394 6.81887 17.4517 7.42056 17.4517 8.02224 17.4517 8.51 17.9394 8.51 18.5411Z" fill="#50E6FF" transform="matrix(1 0 0 1.02703 349 522)"/><path d="M8.51 23.3717C8.51 23.9734 8.02224 24.4611 7.42056 24.4611 6.81887 24.4611 6.33111 23.9733 6.33111 23.3717 6.33111 22.77 6.81887 22.2822 7.42056 22.2822 8.02224 22.2822 8.51 22.77 8.51 23.3717Z" fill="#50E6FF" transform="matrix(1 0 0 1.02703 349 522)"/><path d="M35.9722 26.7222C35.8848 23.9316 33.7869 21.6159 31.0183 21.2544 30.8513 17.3323 27.5629 14.2729 23.6389 14.3889 20.5092 14.3233 17.6806 16.2448 16.5883 19.1783 13.2545 19.5824 10.7142 22.3585 10.6067 25.715 10.7626 29.5173 13.9566 32.4819 17.76 32.3544L29.9494 32.3544C30.0513 32.3739 30.1559 32.3739 30.2578 32.3544 33.3729 32.3329 35.9055 29.8367 35.9722 26.7222Z" fill="url(#fill38)" transform="matrix(1 0 0 1.02703 349 522)"/></g></g></g><g><g><g><path d="M18.5 10.5861C11.2233 10.5861 5.34444 8.53056 5.34444 5.81722L5.34444 23.0428C5.34444 25.6533 11.1411 27.7911 18.3356 27.8117L18.5 27.8117C25.7767 27.8117 31.6761 25.7561 31.6761 23.0428L31.6761 5.81722C31.6556 8.44833 25.7561 10.5861 18.5 10.5861Z" fill="url(#fill39)" transform="matrix(1 0 0 1.02703 574 522)"/><path d="M31.6556 5.81722C31.6556 8.44833 25.7561 10.5861 18.4794 10.5861 11.2028 10.5861 5.32389 8.53056 5.32389 5.81722 5.32389 3.10389 11.2028 1.04833 18.5 1.04833 25.7972 1.04833 31.6761 3.10389 31.6761 5.81722" fill="#EAEAEA" transform="matrix(1 0 0 1.02703 574 522)"/><path d="M28.5928 5.42667C28.5928 7.11222 24.0706 8.46889 18.4794 8.46889 12.8883 8.46889 8.38667 7.11222 8.38667 5.42667 8.38667 3.74111 12.9089 2.405 18.5 2.405 24.0911 2.405 28.6133 3.76167 28.6133 5.42667" fill="#50E6FF" transform="matrix(1 0 0 1.02703 574 522)"/><path d="M18.5 6.16667C15.7893 6.10569 13.0873 6.49467 10.5039 7.31778 13.0832 8.15866 15.7883 8.54808 18.5 8.46889 21.2143 8.53815 23.92 8.13473 26.4961 7.27667 23.9111 6.46412 21.2086 6.08896 18.5 6.16667Z" fill="#198AB3" transform="matrix(1 0 0 1.02703 574 522)"/><path d="M35.9722 10.4628C35.9722 14.913 32.3186 18.5206 27.8117 18.5206 23.3047 18.5206 19.6511 14.913 19.6511 10.4628 19.6511 6.01259 23.3047 2.405 27.8117 2.405 32.3186 2.405 35.9722 6.01259 35.9722 10.4628Z" fill="#32BEDD" transform="matrix(1 0 0 1.02703 574 522)"/><path d="M34.0811 10.4422C34.0811 13.9047 31.2742 16.7117 27.8117 16.7117 24.3491 16.7117 21.5422 13.9047 21.5422 10.4422 21.5422 6.9797 24.3491 4.17278 27.8117 4.17278 31.2742 4.17278 34.0811 6.9797 34.0811 10.4422Z" fill="#FFFFFF" transform="matrix(1 0 0 1.02703 574 522)"/><path d="M27.8117 11.0383 27.8117 11.0383C27.4983 11.0277 27.2467 10.7761 27.2361 10.4628L27.2361 5.81722C27.297 5.49368 27.6086 5.28073 27.9322 5.34161 28.1735 5.38702 28.3624 5.57584 28.4078 5.81722L28.4078 10.4628C28.3967 10.7839 28.133 11.0385 27.8117 11.0383Z" fill="#9F9F9F" transform="matrix(1 0 0 1.02703 574 522)"/><path d="M29.513 9.80988C29.835 9.80988 30.0961 10.071 30.0961 10.3931L30.0961 13.4131C30.0961 13.7352 29.835 13.9963 29.513 13.9963L29.513 13.9963C29.1909 13.9963 28.9298 13.7352 28.9298 13.4131L28.9298 10.3931C28.9298 10.071 29.1909 9.80988 29.513 9.80988Z" fill="#9F9F9F" transform="matrix(-0.697865 0.716726 -0.697865 -0.716726 632.028 521.451)"/><path d="M29.0244 10.4422C29.0244 11.112 28.4815 11.655 27.8117 11.655 27.1419 11.655 26.5989 11.112 26.5989 10.4422 26.5989 9.77242 27.1419 9.22944 27.8117 9.22944 28.4815 9.22944 29.0244 9.77242 29.0244 10.4422Z" fill="#5E5E5E" transform="matrix(1 0 0 1.02703 574 522)"/><path d="M23.9678 30.4222 18.9111 35.4789C18.6946 35.7116 18.3304 35.7248 18.0977 35.5082 18.0875 35.4988 18.0778 35.489 18.0683 35.4789L13.0117 30.4222C12.9094 30.3158 12.9128 30.1466 13.0193 30.0444 13.0671 29.9984 13.1304 29.9719 13.1967 29.97L16.3006 29.97C16.4481 29.97 16.5678 29.8504 16.5678 29.7028L16.5678 23.3717C16.5784 23.2549 16.6766 23.1656 16.7939 23.1661L20.1856 23.1661C20.2991 23.1661 20.3911 23.2581 20.3911 23.3717L20.3911 29.7028C20.3907 29.8504 20.51 29.9704 20.6575 29.9708 20.6647 29.9708 20.6718 29.9705 20.6789 29.97L23.7828 29.97C23.9303 29.9743 24.0464 30.0973 24.0422 30.2448 24.0402 30.3111 24.0137 30.3744 23.9678 30.4222Z" fill="#50E6FF" transform="matrix(1 0 0 1.02703 574 522)"/><path d="M8.81833 31.265 1.665 31.265C1.33578 31.265 1.06889 30.9981 1.06889 30.6689L1.06889 23.5156C1.07315 23.368 1.1962 23.2519 1.34372 23.2562 1.41003 23.2581 1.47327 23.2846 1.52111 23.3306L3.57667 25.3861 3.7 25.53C3.81026 25.6319 3.98029 25.6319 4.09056 25.53L8.55111 21.0489C8.63795 20.9679 8.7726 20.9679 8.85944 21.0489L11.2644 23.4539C11.3454 23.5407 11.3454 23.6754 11.2644 23.7622L6.82444 28.2228C6.7166 28.306 6.69664 28.4609 6.77987 28.5688 6.79276 28.5855 6.80774 28.6004 6.82444 28.6133L6.94778 28.7572 9.00333 30.8128C9.10557 30.9192 9.10216 31.0884 8.99572 31.1906 8.94788 31.2366 8.88465 31.2631 8.81833 31.265Z" fill="#50E6FF" transform="matrix(1 0 0 1.02703 574 522)"/><path d="M27.9556 30.8333 30.0111 28.7778 30.1344 28.6339C30.2363 28.5236 30.2363 28.3536 30.1344 28.2433L25.6944 23.7622C25.6135 23.6754 25.6135 23.5407 25.6944 23.4539L28.0994 21.0489C28.1794 20.9705 28.3073 20.9705 28.3872 21.0489L32.8889 25.53C32.9923 25.6292 33.1555 25.6292 33.2589 25.53L33.4028 25.3861 35.4583 23.3306C35.5524 23.2168 35.7208 23.2008 35.8346 23.2948 35.9 23.3489 35.9358 23.4308 35.9311 23.5156L35.9311 30.6689C35.9313 30.9981 35.6646 31.2652 35.3354 31.2654 35.3284 31.2654 35.3214 31.2652 35.3144 31.265L28.1406 31.265C27.9936 31.2513 27.8856 31.1211 27.8992 30.9742 27.904 30.9228 27.9236 30.8739 27.9556 30.8333Z" fill="#50E6FF" transform="matrix(1 0 0 1.02703 574 522)"/></g></g></g><g><g><g><path d="M817 532.851C809.527 532.851 803.468 530.74 803.468 527.953L803.468 554.047C803.468 556.728 809.421 558.902 816.81 558.944L817 558.944C824.473 558.944 830.532 556.833 830.532 554.047L830.532 527.953C830.532 530.677 824.473 532.851 817 532.851Z" fill="url(#fill40)"/><path d="M830.532 527.953C830.532 530.677 824.473 532.851 817 532.851 809.527 532.851 803.468 530.74 803.468 527.953 803.468 525.167 809.527 523.056 817 523.056 824.473 523.056 830.532 525.167 830.532 527.953" fill="#E8E8E8"/><path d="M827.387 527.552C827.387 529.283 822.721 530.677 817 530.677 811.279 530.677 806.613 529.283 806.613 527.552 806.613 525.821 811.279 524.449 817 524.449 822.721 524.449 827.387 525.842 827.387 527.552" fill="#50E6FF"/><path d="M817 528.333C814.214 528.262 811.436 528.669 808.788 529.537 811.439 530.388 814.217 530.774 817 530.677 819.788 530.758 822.569 530.344 825.212 529.452 822.556 528.625 819.781 528.247 817 528.333Z" fill="#198AB3"/><path d="M825.233 546.067 825.233 538.889 823.333 538.889 823.333 547.608 828.527 547.608 828.527 546.067ZM810.16 542.541C809.768 542.383 809.404 542.162 809.083 541.887 808.911 541.705 808.82 541.461 808.83 541.211 808.817 540.959 808.937 540.719 809.147 540.578 809.406 540.398 809.718 540.309 810.033 540.324 810.785 540.291 811.527 540.506 812.144 540.937L812.144 539.121C811.47 538.87 810.752 538.755 810.033 538.783 809.205 538.739 808.389 538.994 807.732 539.501 807.152 539.949 806.822 540.648 806.846 541.38 806.846 542.457 807.521 543.301 808.957 543.934 809.423 544.132 809.863 544.388 810.266 544.694 810.465 544.862 810.581 545.109 810.582 545.37 810.582 545.63 810.456 545.874 810.244 546.024 809.957 546.193 809.627 546.273 809.294 546.257 808.445 546.25 807.628 545.935 806.993 545.37L806.993 547.333C807.69 547.693 808.468 547.867 809.252 547.84 810.137 547.892 811.014 547.647 811.743 547.143 812.266 546.649 812.524 545.937 812.44 545.222 812.45 544.682 812.262 544.156 811.912 543.744 811.419 543.225 810.822 542.815 810.16 542.541ZM821.222 545.898C821.702 545.095 821.943 544.172 821.919 543.238 821.871 542.446 821.632 541.679 821.222 541 820.893 540.341 820.379 539.791 819.744 539.417 819.101 539.052 818.373 538.863 817.633 538.868 816.836 538.85 816.049 539.047 815.353 539.438 814.702 539.801 814.167 540.343 813.812 541 813.438 541.746 813.25 542.572 813.263 543.407 813.268 544.14 813.441 544.862 813.77 545.518 814.092 546.17 814.599 546.713 815.227 547.08 815.864 547.469 816.591 547.687 817.338 547.713L819.153 549.824 821.708 549.824 819.111 547.502C819.986 547.24 820.735 546.67 821.222 545.898ZM819.111 545.37C818.721 545.854 818.128 546.127 817.507 546.109 816.881 546.129 816.283 545.846 815.902 545.349 815.456 544.739 815.239 543.992 815.29 543.238 815.241 542.484 815.458 541.737 815.902 541.127 816.305 540.631 816.91 540.343 817.549 540.346 818.175 540.319 818.772 540.613 819.132 541.127 819.548 541.749 819.748 542.491 819.702 543.238 819.776 543.997 819.565 544.757 819.111 545.37Z" fill="url(#fill41)"/></g></g></g><text font-family="Verdana,Verdana_MSFontService,sans-serif" font-weight="400" font-size="18.6667" transform="translate(75.3438 584)">Data Factories</text><text font-family="Verdana,Verdana_MSFontService,sans-serif" font-weight="400" font-size="18.6667" transform="translate(295.642 584)">Virtual Clusters</text><text font-family="Verdana,Verdana_MSFontService,sans-serif" font-weight="400" font-size="18.6667" transform="translate(507.941 584)">Elastic Job Agents</text><text font-family="Verdana,Verdana_MSFontService,sans-serif" font-weight="400" font-size="18.6667" transform="translate(751.323 584)">SQL Database</text></g></svg>