<svg width="960" height="720" xmlns="http://www.w3.org/2000/svg" xmlns:xlink="http://www.w3.org/1999/xlink" overflow="hidden"><defs><clipPath id="clip0"><rect x="0" y="0" width="960" height="720"/></clipPath><clipPath id="clip1"><rect x="518" y="138" width="348" height="154"/></clipPath><clipPath id="clip2"><rect x="518" y="138" width="348" height="154"/></clipPath><clipPath id="clip3"><rect x="480" y="120" width="449" height="214"/></clipPath><clipPath id="clip4"><rect x="480" y="120" width="449" height="214"/></clipPath><clipPath id="clip5"><rect x="480" y="120" width="449" height="214"/></clipPath><clipPath id="clip6"><rect x="480" y="120" width="449" height="214"/></clipPath><clipPath id="clip7"><rect x="480" y="120" width="449" height="214"/></clipPath><clipPath id="clip8"><rect x="480" y="120" width="449" height="214"/></clipPath><clipPath id="clip9"><rect x="480" y="120" width="449" height="214"/></clipPath><clipPath id="clip10"><rect x="480" y="120" width="449" height="214"/></clipPath><clipPath id="clip11"><rect x="480" y="120" width="449" height="214"/></clipPath><clipPath id="clip12"><rect x="480" y="120" width="449" height="214"/></clipPath><clipPath id="clip13"><rect x="480" y="120" width="449" height="214"/></clipPath><clipPath id="clip14"><rect x="480" y="120" width="449" height="214"/></clipPath><clipPath id="clip15"><rect x="480" y="120" width="449" height="214"/></clipPath><clipPath id="clip16"><rect x="480" y="120" width="449" height="214"/></clipPath><clipPath id="clip17"><rect x="480" y="120" width="449" height="214"/></clipPath><clipPath id="clip18"><rect x="518" y="352" width="348" height="153"/></clipPath><clipPath id="clip19"><rect x="518" y="352" width="348" height="153"/></clipPath><clipPath id="clip20"><rect x="480" y="334" width="449" height="214"/></clipPath><clipPath id="clip21"><rect x="480" y="334" width="449" height="214"/></clipPath><clipPath id="clip22"><rect x="480" y="334" width="449" height="214"/></clipPath><clipPath id="clip23"><rect x="480" y="334" width="449" height="214"/></clipPath><clipPath id="clip24"><rect x="480" y="334" width="449" height="214"/></clipPath><clipPath id="clip25"><rect x="480" y="334" width="449" height="214"/></clipPath><clipPath id="clip26"><rect x="480" y="334" width="449" height="214"/></clipPath><clipPath id="clip27"><rect x="480" y="334" width="449" height="214"/></clipPath><clipPath id="clip28"><rect x="480" y="334" width="449" height="214"/></clipPath><clipPath id="clip29"><rect x="480" y="334" width="449" height="214"/></clipPath><clipPath id="clip30"><rect x="480" y="334" width="449" height="214"/></clipPath><clipPath id="clip31"><rect x="480" y="334" width="449" height="214"/></clipPath><clipPath id="clip32"><rect x="480" y="334" width="449" height="214"/></clipPath><clipPath id="clip33"><rect x="480" y="334" width="449" height="214"/></clipPath><clipPath id="clip34"><rect x="480" y="334" width="449" height="214"/></clipPath></defs><g clip-path="url(#clip0)"><rect x="0" y="0" width="960" height="720" fill="#FFFFFF"/><text font-family="Verdana,Verdana_MSFontService,sans-serif" font-weight="400" font-size="59" transform="translate(39.8362 93)">Grid<tspan font-family="Arial,Arial_MSFontService,sans-serif" font-size="24" x="867.291" y="594">1</tspan><tspan font-size="37" x="119" y="70">This is the row 1</tspan></text><g clip-path="url(#clip1)"><path d="M526 261 605 261 605 291 526 291ZM700 200 779 200 779 291 700 291Z" fill="#4472C4"/></g><g clip-path="url(#clip2)"><path d="M605 230 684 230 684 291 605 291ZM779 169 858 169 858 291 779 291Z" fill="#ED7D31"/></g><g clip-path="url(#clip3)"><path d="M0 0 0.000104987 153" stroke="#000000" stroke-width="1.33333" stroke-linejoin="round" stroke-miterlimit="10" fill="none" fill-rule="evenodd" transform="matrix(1 0 0 -1 518.5 291.5)"/></g><g clip-path="url(#clip4)"><path d="M518.5 291.5 522.5 291.5M518.5 284.5 522.5 284.5M518.5 278.5 522.5 278.5M518.5 272.5 522.5 272.5M518.5 266.5 522.5 266.5M518.5 260.5 522.5 260.5M518.5 254.5 522.5 254.5M518.5 248.5 522.5 248.5M518.5 242.5 522.5 242.5M518.5 236.5 522.5 236.5M518.5 230.5 522.5 230.5M518.5 224.5 522.5 224.5M518.5 218.5 522.5 218.5M518.5 211.5 522.5 211.5M518.5 205.5 522.5 205.5M518.5 199.5 522.5 199.5M518.5 193.5 522.5 193.5M518.5 187.5 522.5 187.5M518.5 181.5 522.5 181.5M518.5 175.5 522.5 175.5M518.5 169.5 522.5 169.5M518.5 163.5 522.5 163.5M518.5 157.5 522.5 157.5M518.5 151.5 522.5 151.5M518.5 145.5 522.5 145.5M518.5 138.5 522.5 138.5M518.5 291.5 524.5 291.5M518.5 260.5 524.5 260.5M518.5 230.5 524.5 230.5M518.5 199.5 524.5 199.5M518.5 169.5 524.5 169.5M518.5 138.5 524.5 138.5" stroke="#000000" stroke-width="1.33333" stroke-linejoin="round" stroke-miterlimit="10" fill="none"/></g><g clip-path="url(#clip5)"><path d="M518.5 291.5 865.5 291.5" stroke="#000000" stroke-width="1.33333" stroke-linejoin="round" stroke-miterlimit="10" fill="none" fill-rule="evenodd"/></g><g clip-path="url(#clip6)"><text font-family="Verdana,Verdana_MSFontService,sans-serif" font-weight="400" font-size="19" transform="translate(488.667 298)">0</text></g><g clip-path="url(#clip7)"><text font-family="Verdana,Verdana_MSFontService,sans-serif" font-weight="400" font-size="19" transform="translate(488.667 267)">1</text></g><g clip-path="url(#clip8)"><text font-family="Verdana,Verdana_MSFontService,sans-serif" font-weight="400" font-size="19" transform="translate(488.667 237)">2</text></g><g clip-path="url(#clip9)"><text font-family="Verdana,Verdana_MSFontService,sans-serif" font-weight="400" font-size="19" transform="translate(488.667 206)">3</text></g><g clip-path="url(#clip10)"><text font-family="Verdana,Verdana_MSFontService,sans-serif" font-weight="400" font-size="19" transform="translate(488.667 176)">4</text></g><g clip-path="url(#clip11)"><text font-family="Verdana,Verdana_MSFontService,sans-serif" font-weight="400" font-size="19" transform="translate(488.667 146)">5</text></g><g clip-path="url(#clip12)"><text font-family="Verdana,Verdana_MSFontService,sans-serif" font-weight="400" font-size="19" transform="translate(598.676 323)">X</text></g><g clip-path="url(#clip13)"><text font-family="Verdana,Verdana_MSFontService,sans-serif" font-weight="400" font-size="19" transform="translate(773.199 323)">Y</text></g><g clip-path="url(#clip14)"><rect x="889" y="208" width="10" height="10" fill="#4472C4"/></g><g clip-path="url(#clip15)"><text font-family="Verdana,Verdana_MSFontService,sans-serif" font-weight="400" font-size="19" transform="translate(903.464 219)">A</text></g><g clip-path="url(#clip16)"><rect x="889" y="238" width="10" height="10" fill="#ED7D31"/></g><g clip-path="url(#clip17)"><text font-family="Verdana,Verdana_MSFontService,sans-serif" font-weight="400" font-size="19" transform="translate(903.464 250)">B</text></g><text font-family="Verdana,Verdana_MSFontService,sans-serif" font-weight="400" font-size="37" transform="translate(158.836 377)">This is the row 2</text><g clip-path="url(#clip18)"><path d="M526 475 605 475 605 505 526 505ZM700 444 779 444 779 505 700 505Z" fill="#4472C4"/></g><g clip-path="url(#clip19)"><path d="M605 414 684 414 684 505 605 505ZM779 383 858 383 858 505 779 505Z" fill="#ED7D31"/></g><g clip-path="url(#clip20)"><path d="M0 0 0.000104987 152" stroke="#000000" stroke-width="1.33333" stroke-linejoin="round" stroke-miterlimit="10" fill="none" fill-rule="evenodd" transform="matrix(1 0 0 -1 518.5 504.5)"/></g><g clip-path="url(#clip21)"><path d="M518.5 504.5 522.5 504.5M518.5 498.5 522.5 498.5M518.5 492.5 522.5 492.5M518.5 486.5 522.5 486.5M518.5 480.5 522.5 480.5M518.5 474.5 522.5 474.5M518.5 468.5 522.5 468.5M518.5 462.5 522.5 462.5M518.5 456.5 522.5 456.5M518.5 450.5 522.5 450.5M518.5 444.5 522.5 444.5M518.5 438.5 522.5 438.5M518.5 431.5 522.5 431.5M518.5 425.5 522.5 425.5M518.5 419.5 522.5 419.5M518.5 413.5 522.5 413.5M518.5 407.5 522.5 407.5M518.5 401.5 522.5 401.5M518.5 395.5 522.5 395.5M518.5 389.5 522.5 389.5M518.5 383.5 522.5 383.5M518.5 377.5 522.5 377.5M518.5 371.5 522.5 371.5M518.5 365.5 522.5 365.5M518.5 358.5 522.5 358.5M518.5 352.5 522.5 352.5M518.5 504.5 524.5 504.5M518.5 474.5 524.5 474.5M518.5 444.5 524.5 444.5M518.5 413.5 524.5 413.5M518.5 383.5 524.5 383.5M518.5 352.5 524.5 352.5" stroke="#000000" stroke-width="1.33333" stroke-linejoin="round" stroke-miterlimit="10" fill="none"/></g><g clip-path="url(#clip22)"><path d="M518.5 504.5 865.5 504.5" stroke="#000000" stroke-width="1.33333" stroke-linejoin="round" stroke-miterlimit="10" fill="none" fill-rule="evenodd"/></g><g clip-path="url(#clip23)"><text font-family="Verdana,Verdana_MSFontService,sans-serif" font-weight="400" font-size="19" transform="translate(488.667 512)">0</text></g><g clip-path="url(#clip24)"><text font-family="Verdana,Verdana_MSFontService,sans-serif" font-weight="400" font-size="19" transform="translate(488.667 481)">1</text></g><g clip-path="url(#clip25)"><text font-family="Verdana,Verdana_MSFontService,sans-serif" font-weight="400" font-size="19" transform="translate(488.667 451)">2</text></g><g clip-path="url(#clip26)"><text font-family="Verdana,Verdana_MSFontService,sans-serif" font-weight="400" font-size="19" transform="translate(488.667 420)">3</text></g><g clip-path="url(#clip27)"><text font-family="Verdana,Verdana_MSFontService,sans-serif" font-weight="400" font-size="19" transform="translate(488.667 390)">4</text></g><g clip-path="url(#clip28)"><text font-family="Verdana,Verdana_MSFontService,sans-serif" font-weight="400" font-size="19" transform="translate(488.667 360)">5</text></g><g clip-path="url(#clip29)"><text font-family="Verdana,Verdana_MSFontService,sans-serif" font-weight="400" font-size="19" transform="translate(598.676 536)">X</text></g><g clip-path="url(#clip30)"><text font-family="Verdana,Verdana_MSFontService,sans-serif" font-weight="400" font-size="19" transform="translate(773.199 536)">Y</text></g><g clip-path="url(#clip31)"><rect x="889" y="421" width="10" height="11" fill="#4472C4"/></g><g clip-path="url(#clip32)"><text font-family="Verdana,Verdana_MSFontService,sans-serif" font-weight="400" font-size="19" transform="translate(903.464 433)">A</text></g><g clip-path="url(#clip33)"><rect x="889" y="452" width="10" height="10" fill="#ED7D31"/></g><g clip-path="url(#clip34)"><text font-family="Verdana,Verdana_MSFontService,sans-serif" font-weight="400" font-size="19" transform="translate(903.464 464)">B</text></g><text font-family="Verdana,Verdana_MSFontService,sans-serif" font-weight="400" font-size="37" transform="translate(51.9199 591)">The row 3 have only one column and shorter.</text></g></svg>