<?xml version="1.0" encoding="UTF-8" standalone="no"?>
<!-- Created with Inkscape (http://www.inkscape.org/) -->

<svg
   width="154"
   height="48"
   viewBox="0 0 154 48"
   version="1.1"
   id="svg1"
   inkscape:version="1.4 (e7c3feb100, 2024-10-09)"
   sodipodi:docname="logo_white.svg"
   xmlns:inkscape="http://www.inkscape.org/namespaces/inkscape"
   xmlns:sodipodi="http://sodipodi.sourceforge.net/DTD/sodipodi-0.dtd"
   xmlns="http://www.w3.org/2000/svg"
   xmlns:svg="http://www.w3.org/2000/svg">
  <sodipodi:namedview
     id="namedview1"
     pagecolor="#000000"
     bordercolor="#666666"
     borderopacity="1.0"
     inkscape:showpageshadow="2"
     inkscape:pageopacity="0.0"
     inkscape:pagecheckerboard="0"
     inkscape:deskcolor="#d1d1d1"
     inkscape:document-units="px"
     inkscape:window-x="0"
     inkscape:window-y="0"
     inkscape:window-maximized="1"
     inkscape:current-layer="layer1" />
  <defs
     id="defs1" />
  <g
     inkscape:label="Layer 1"
     inkscape:groupmode="layer"
     id="layer1">
    <path
       d="m 48.053802,30.890015 h 2.94 v -4.42 h 1.68 c 2.76,0 5.1,-1.36 5.1,-4.42 0,-3.16 -2.28,-4.2 -5.1,-4.2 h -4.62 z m 2.94,-6.76 v -3.94 h 1.5 c 1.56,0 2.4,0.5 2.4,1.86 0,1.36 -0.78,2.08 -2.4,2.08 z m 15.460008,7 c 1.24,0 1.94,-0.2 2.98,-0.54 l -0.66,-2.16 c -0.6,0.24 -1.08,0.32 -1.54,0.32 -0.84,0 -1.62,-0.4 -1.62,-1.62 v -10.26 h -6.06 v 2.32 h 3.12 v 7.82 c 0,2.52 1.3,4.12 3.78,4.12 z m 10.100008,0 c 2.62,0 5.06,-1.9 5.06,-5.2 0,-3.3 -2.44,-5.2 -5.06,-5.2 -2.62,0 -5.06,1.9 -5.06,5.2 0,3.3 2.44,5.2 5.06,5.2 z m 0,-2.38 c -1.36,0 -2.04,-1.1 -2.04,-2.82 0,-1.72 0.68,-2.82 2.04,-2.82 1.36,0 2.04,1.1 2.04,2.82 0,1.72 -0.68,2.82 -2.04,2.82 z m 13.760007,2.38 c 1.32,0 2.36,-0.28 3.24,-0.54 l -0.52,-2.12 c -0.6,0.2 -1.22,0.36 -1.96,0.36 -1.46,0 -2.1,-0.58 -2.1,-2.08 v -3.48 h 4.2 v -2.3 h -4.2 v -3.04 h -2.42 l -0.38,3.04 -2.64,0.12 v 2.18 h 2.5 v 3.5 c 0,2.6 1.12,4.36 4.28,4.36 z m 8.720008,0 c 1.279997,0 2.519997,-0.6 3.519997,-1.36 h 0.08 l 0.22,1.12 h 2.4 v -5.68 c 0,-3.04 -1.7,-4.48 -4.48,-4.48 -1.699997,0 -3.279997,0.56 -4.639997,1.34 l 1.04,1.92 c 1.12,-0.56 2.06,-0.92 3.019997,-0.92 1.34,0 2.02,0.54 2.12,1.44 -4.699997,0.28 -6.539997,1.4 -6.539997,3.62 0,1.68 1.26,3 3.26,3 z m 0.94,-2.28 c -0.84,0 -1.38,-0.3 -1.38,-0.94 0,-0.86 0.8,-1.48 3.719997,-1.64 v 1.64 c -0.7,0.54 -1.46,0.94 -2.339997,0.94 z m 8.020007,2.04 h 2.94 v -6.62 c 0.7,-0.68 1.22,-1.04 2.02,-1.04 1.08,0 1.46,0.6 1.46,1.92 v 5.74 h 2.94 v -6.12 c 0,-2.5 -1,-4.04 -3.24,-4.04 -1.48,0 -2.56,0.72 -3.42,1.56 h -0.08 l -0.22,-1.32 h -2.4 z m 17.42001,0.24 c 1.36,0 2.88,-0.46 4.08,-1.46 l -1.18,-1.86 c -0.72,0.5 -1.58,0.94 -2.62,0.94 -1.64,0 -2.78,-1.1 -2.78,-2.82 0,-1.72 1.18,-2.82 2.88,-2.82 0.74,0 1.44,0.24 2.2,0.78 l 1.36,-1.82 c -0.84,-0.78 -2.16,-1.34 -3.72,-1.34 -3.06,0 -5.74,1.9 -5.74,5.2 0,3.3 2.4,5.2 5.52,5.2 z m 11.50001,-8.16 c 1.14,0 1.82,0.64 1.96,1.86 h -4.24 c 0.3,-1.24 1.12,-1.86 2.28,-1.86 z m 0.24,8.16 c 1.32,0 2.8,-0.44 3.94,-1.16 l -0.98,-1.78 c -0.88,0.46 -1.66,0.7 -2.56,0.7 -1.62,0 -2.68,-0.64 -2.96,-2.08 h 6.76 c 0.04,-0.24 0.14,-0.78 0.14,-1.32 0,-2.7 -1.62,-4.76 -4.68,-4.76 -2.66,0 -5.16,1.94 -5.16,5.2 0,3.3 2.4,5.2 5.5,5.2 z"
       id="text17"
       style="font-weight:bold;font-size:20px;line-height:1;font-family:'Source Code Pro';-inkscape-font-specification:'Source Code Pro, Bold';letter-spacing:0px;word-spacing:0px;stroke-width:1px;fill:#f5f5f5;fill-opacity:1"
       aria-label="Plotance" />
    <rect
       style="fill:#f5f5f5;fill-opacity:1;fill-rule:evenodd;stroke-width:2;stroke-linejoin:round;paint-order:stroke fill markers"
       id="rect7"
       width="20"
       height="4"
       x="12"
       y="10" />
    <rect
       style="fill:#f5f5f5;fill-opacity:1;fill-rule:evenodd;stroke-width:2;stroke-linejoin:round;paint-order:stroke fill markers"
       id="rect8"
       width="24"
       height="4"
       x="12"
       y="16" />
    <rect
       style="fill:#f5f5f5;fill-opacity:1;fill-rule:evenodd;stroke-width:2.00001;stroke-linejoin:round;paint-order:stroke fill markers"
       id="rect14"
       width="20"
       height="4"
       x="12"
       y="22" />
    <rect
       style="fill:#f5f5f5;fill-opacity:1;fill-rule:evenodd;stroke-width:2;stroke-linejoin:round;paint-order:stroke fill markers"
       id="rect15"
       width="8"
       height="4"
       x="12"
       y="28" />
    <rect
       style="fill:#f5f5f5;fill-opacity:1;fill-rule:evenodd;stroke-width:2;stroke-linejoin:round;paint-order:stroke fill markers"
       id="rect16"
       width="8"
       height="4"
       x="12"
       y="34" />
    <rect
       style="fill:#f5f5f5;fill-opacity:1;fill-rule:evenodd;stroke-width:2;stroke-linejoin:round;paint-order:stroke fill markers"
       id="rect17"
       width="2"
       height="32"
       x="12"
       y="8" />
  </g>
</svg>
